<?xml version="1.0" encoding="UTF-8"?>
<svg version="1.1" xmlns="http://www.w3.org/2000/svg" width="686" height="386">
<path d="M0 0 C226.38 0 452.76 0 686 0 C686 127.38 686 254.76 686 386 C459.62 386 233.24 386 0 386 C0 258.62 0 131.24 0 0 Z " fill="#FDFDFD" transform="translate(0,0)"/>
<path d="M0 0 C27.72 0 55.44 0 84 0 C84 4.95 84 9.9 84 15 C88.62 15 93.24 15 98 15 C98 28.53 98 42.06 98 56 C79.52 56 61.04 56 42 56 C42 60.95 42 65.9 42 71 C55.53 71 69.06 71 83 71 C83 75.62 83 80.24 83 85 C64.85 85 46.7 85 28 85 C28 94.24 28 103.48 28 113 C37.24 113 46.48 113 56 113 C56 122.24 56 131.48 56 141 C51.38 141 46.76 141 42 141 C42 136.38 42 131.76 42 127 C37.38 127 32.76 127 28 127 C28 135.91 28 144.82 28 154 C23.38 154 18.76 154 14 154 C14 158.62 14 163.24 14 168 C9.38 168 4.76 168 0 168 C0 186.81 0 205.62 0 225 C4.62 225 9.24 225 14 225 C14 229.62 14 234.24 14 239 C4.76 239 -4.48 239 -14 239 C-14 229.76 -14 220.52 -14 211 C-18.62 211 -23.24 211 -28 211 C-28 206.38 -28 201.76 -28 197 C-32.62 197 -37.24 197 -42 197 C-42 201.29 -42 205.58 -42 210 C-46.62 210 -51.24 210 -56 210 C-56 214.95 -56 219.9 -56 225 C-51.38 225 -46.76 225 -42 225 C-42 229.29 -42 233.58 -42 238 C-51.24 238 -60.48 238 -70 238 C-70 219.85 -70 201.7 -70 183 C-74.62 183 -79.24 183 -84 183 C-84 178.38 -84 173.76 -84 169 C-88.62 169 -93.24 169 -98 169 C-98 164.38 -98 159.76 -98 155 C-102.62 155 -107.24 155 -112 155 C-112 150.38 -112 145.76 -112 141 C-116.62 141 -121.24 141 -126 141 C-126 117.9 -126 94.8 -126 71 C-121.71 71 -117.42 71 -113 71 C-113 80.24 -113 89.48 -113 99 C-108.38 99 -103.76 99 -99 99 C-99 103.62 -99 108.24 -99 113 C-94.38 113 -89.76 113 -85 113 C-85 117.62 -85 122.24 -85 127 C-75.1 127 -65.2 127 -55 127 C-55 122.38 -55 117.76 -55 113 C-50.38 113 -45.76 113 -41 113 C-41 108.38 -41 103.76 -41 99 C-36.71 99 -32.42 99 -28 99 C-28 94.38 -28 89.76 -28 85 C-23.38 85 -18.76 85 -14 85 C-14 61.57 -14 38.14 -14 14 C-9.38 14 -4.76 14 0 14 C0 9.38 0 4.76 0 0 Z " fill="#030303" transform="translate(210,26)"/>
<path d="M0 0 C2.47923801 -0.02685095 4.9581884 -0.04676547 7.4375 -0.0625 C8.14455078 -0.07087891 8.85160156 -0.07925781 9.58007812 -0.08789062 C11.38693559 -0.09653588 13.19387603 -0.05220011 15 0 C16 1 16 1 16.0625 4.0625 C16.041875 5.031875 16.02125 6.00125 16 7 C17.65 7 19.3 7 21 7 C21 40 21 73 21 107 C27.27 107 33.54 107 40 107 C40 88.19 40 69.38 40 50 C42.31 50 44.62 50 47 50 C47 48.02 47 46.04 47 44 C49.33294775 43.95758277 51.66702567 43.95907063 54 44 C55 45 55 45 55.0625 47.5625 C55.041875 48.366875 55.02125 49.17125 55 50 C57.31 50 59.62 50 62 50 C62 69.8 62 89.6 62 110 C59.69 110 57.38 110 55 110 C55 111.98 55 113.96 55 116 C52.36 116.33 49.72 116.66 47 117 C47 118.65 47 120.3 47 122 C38.75 122 30.5 122 22 122 C22 143.78 22 165.56 22 188 C8.8 188 -4.4 188 -18 188 C-18.495 186.02 -18.495 186.02 -19 184 C-14.38 184 -9.76 184 -5 184 C-5 164.53 -5 145.06 -5 125 C-11.6 125 -18.2 125 -25 125 C-25 123.35 -25 121.7 -25 120 C-26.65 120 -28.3 120 -30 120 C-30 117.69 -30 115.38 -30 113 C-31.65 113 -33.3 113 -35 113 C-36.00184599 109.99446202 -36.12668738 107.99770836 -36.12939453 104.85766602 C-36.13254669 103.80970352 -36.13569885 102.76174103 -36.13894653 101.68202209 C-36.1369223 100.55074387 -36.13489807 99.41946564 -36.1328125 98.25390625 C-36.13376923 97.09124741 -36.13472595 95.92858856 -36.13571167 94.73069763 C-36.13639261 92.27025295 -36.13454433 89.80980647 -36.13037109 87.34936523 C-36.12502649 83.58117638 -36.13031655 79.81310699 -36.13671875 76.04492188 C-36.13605786 73.65624974 -36.13477647 71.26757767 -36.1328125 68.87890625 C-36.13483673 67.74965225 -36.13686096 66.62039825 -36.13894653 65.45692444 C-36.13579437 64.40580978 -36.13264221 63.35469513 -36.12939453 62.27172852 C-36.12859894 61.34812027 -36.12780334 60.42451202 -36.12698364 59.47291565 C-36.00881606 57.17168648 -35.6489876 55.20393676 -35 53 C-33.35 53 -31.7 53 -30 53 C-30 51.02 -30 49.04 -30 47 C-28.02 47 -26.04 47 -24 47 C-24 48.98 -24 50.96 -24 53 C-22.35 53 -20.7 53 -19 53 C-19 71.81 -19 90.62 -19 110 C-14.38 110 -9.76 110 -5 110 C-5 76.01 -5 42.02 -5 7 C-3.68 6.67 -2.36 6.34 -1 6 C-0.67 4.02 -0.34 2.04 0 0 Z " fill="#040404" transform="translate(512,57)"/>
<path d="M0 0 C1.084021 0.00523682 2.16804199 0.01047363 3.28491211 0.01586914 C5.03964844 0.02070313 5.03964844 0.02070313 6.82983398 0.02563477 C8.67738281 0.03820312 8.67738281 0.03820312 10.56225586 0.05102539 C12.41560547 0.05779297 12.41560547 0.05779297 14.30639648 0.06469727 C17.37089703 0.07652931 20.43530307 0.09301366 23.49975586 0.11352539 C23.49975586 2.42352539 23.49975586 4.73352539 23.49975586 7.11352539 C24.81975586 7.11352539 26.13975586 7.11352539 27.49975586 7.11352539 C27.49975586 9.42352539 27.49975586 11.73352539 27.49975586 14.11352539 C28.81975586 14.11352539 30.13975586 14.11352539 31.49975586 14.11352539 C31.49975586 21.70352539 31.49975586 29.29352539 31.49975586 37.11352539 C30.17975586 37.11352539 28.85975586 37.11352539 27.49975586 37.11352539 C27.49975586 39.09352539 27.49975586 41.07352539 27.49975586 43.11352539 C26.01475586 43.60852539 26.01475586 43.60852539 24.49975586 44.11352539 C23.27455322 47.12199957 23.27455322 47.12199957 22.49975586 50.11352539 C18.54143777 50.14245396 14.58314669 50.16029966 10.62475586 50.17602539 C8.93286133 50.18859375 8.93286133 50.18859375 7.20678711 50.20141602 C6.13041992 50.20463867 5.05405273 50.20786133 3.94506836 50.21118164 C2.95007324 50.21641846 1.95507812 50.22165527 0.92993164 50.22705078 C-1.50024414 50.11352539 -1.50024414 50.11352539 -3.50024414 49.11352539 C-3.52551304 42.29590645 -3.54307659 35.4782995 -3.55517578 28.66064453 C-3.56021748 26.33935088 -3.56705066 24.01806042 -3.57568359 21.69677734 C-3.58775639 18.36823744 -3.59347393 15.03973937 -3.59790039 11.71118164 C-3.60306168 10.66640152 -3.60822296 9.6216214 -3.61354065 8.54518127 C-3.61361618 7.58426071 -3.61369171 6.62334015 -3.61376953 5.63330078 C-3.61599014 4.78280655 -3.61821075 3.93231232 -3.62049866 3.05604553 C-3.43632387 0.08099528 -2.99111341 0.13581366 0 0 Z " fill="#050505" transform="translate(70.500244140625,299.886474609375)"/>
<path d="M0 0 C3.96 0 7.92 0 12 0 C12 2.31 12 4.62 12 7 C12.99 7 13.98 7 15 7 C15 9.31 15 11.62 15 14 C15.99 14 16.98 14 18 14 C18.33 11.69 18.66 9.38 19 7 C19.66 7 20.32 7 21 7 C20.979375 6.030625 20.95875 5.06125 20.9375 4.0625 C21 1 21 1 22 0 C25.96 0 29.92 0 34 0 C34 16.5 34 33 34 50 C30.7 50 27.4 50 24 50 C22.8517315 47.703463 22.88438825 46.41686833 22.90234375 43.8671875 C22.90556641 43.06152344 22.90878906 42.25585938 22.91210938 41.42578125 C22.92048828 40.58402344 22.92886719 39.74226563 22.9375 38.875 C22.94201172 38.02550781 22.94652344 37.17601562 22.95117188 36.30078125 C22.96297126 34.20049091 22.98090694 32.1002367 23 30 C22.34 30 21.68 30 21 30 C21 34.29 21 38.58 21 43 C18.36 43 15.72 43 13 43 C13 38.71 13 34.42 13 30 C12.01 30 11.02 30 10 30 C10 36.6 10 43.2 10 50 C6.7 50 3.4 50 0 50 C-1.58445025 48.41554975 -1.12728029 46.80065777 -1.12939453 44.60375977 C-1.13254669 43.66931534 -1.13569885 42.73487091 -1.13894653 41.77210999 C-1.1369223 40.75547775 -1.13489807 39.73884552 -1.1328125 38.69140625 C-1.13376923 37.65435043 -1.13472595 36.61729462 -1.13571167 35.54881287 C-1.13639369 33.35049377 -1.13453791 31.15217268 -1.13037109 28.95385742 C-1.12502854 25.58052051 -1.1303126 22.20731708 -1.13671875 18.83398438 C-1.13605787 16.7031247 -1.13477649 14.57226512 -1.1328125 12.44140625 C-1.13483673 11.42679825 -1.13686096 10.41219025 -1.13894653 9.36683655 C-1.13579437 8.42923996 -1.13264221 7.49164337 -1.12939453 6.52563477 C-1.12859894 5.69814224 -1.12780334 4.87064972 -1.12698364 4.01808167 C-1 2 -1 2 0 0 Z " fill="#060606" transform="translate(539,300)"/>
<path d="M0 0 C5.94 0 11.88 0 18 0 C18.33 2.31 18.66 4.62 19 7 C20.65 7 22.3 7 24 7 C24 9.31 24 11.62 24 14 C24.99 14.33 25.98 14.66 27 15 C27.02895225 18.29164829 27.0467823 21.58326399 27.0625 24.875 C27.07087891 25.81214844 27.07925781 26.74929688 27.08789062 27.71484375 C27.09111328 28.61074219 27.09433594 29.50664062 27.09765625 30.4296875 C27.10289307 31.25710449 27.10812988 32.08452148 27.11352539 32.93701172 C27 35 27 35 26 37 C25.34 37 24.68 37 24 37 C24 38.98 24 40.96 24 43 C21.525 43.495 21.525 43.495 19 44 C19 45.98 19 47.96 19 50 C12.73 50 6.46 50 0 50 C-0.33 48.02 -0.66 46.04 -1 44 C-2.32 43.67 -3.64 43.34 -5 43 C-5 41.02 -5 39.04 -5 37 C-5.99 37 -6.98 37 -8 37 C-8 29.41 -8 21.82 -8 14 C-7.01 14 -6.02 14 -5 14 C-5 11.69 -5 9.38 -5 7 C-3.35 7 -1.7 7 0 7 C0 4.69 0 2.38 0 0 Z " fill="#080808" transform="translate(204,300)"/>
<path d="M0 0 C9.9 0 19.8 0 30 0 C30.33 2.31 30.66 4.62 31 7 C32.32 7.33 33.64 7.66 35 8 C35.04241723 10.33294775 35.04092937 12.66702567 35 15 C34.67 15.33 34.34 15.66 34 16 C33.63239269 18.32817964 33.29758419 20.6618385 33 23 C31.02 23 29.04 23 27 23 C27.33 23.680625 27.66 24.36125 28 25.0625 C29.17307315 28.50840238 29.14180493 31.38397422 29 35 C29.99 35 30.98 35 32 35 C32 37.31 32 39.62 32 42 C32.99 42 33.98 42 35 42 C35 44.64 35 47.28 35 50 C31.37 50 27.74 50 24 50 C24 47.69 24 45.38 24 43 C23.01 43 22.02 43 21 43 C21 41.35 21 39.7 21 38 C19.515 37.505 19.515 37.505 18 37 C18 34.69 18 32.38 18 30 C15.69 30 13.38 30 11 30 C11 36.6 11 43.2 11 50 C7.37 50 3.74 50 0 50 C0 33.5 0 17 0 0 Z " fill="#070707" transform="translate(367,300)"/>
<path d="M0 0 C3.96 0 7.92 0 12 0 C12.33 2.31 12.66 4.62 13 7 C13.99 7 14.98 7 16 7 C16 9.31 16 11.62 16 14 C16.99 14 17.98 14 19 14 C19 16.31 19 18.62 19 21 C20.32 21 21.64 21 23 21 C23.02505615 20.39937744 23.0501123 19.79875488 23.07592773 19.17993164 C23.1915528 16.47388563 23.31442936 13.76821717 23.4375 11.0625 C23.47681641 10.11697266 23.51613281 9.17144531 23.55664062 8.19726562 C23.59853516 7.29814453 23.64042969 6.39902344 23.68359375 5.47265625 C23.72025146 4.64000244 23.75690918 3.80734863 23.79467773 2.94946289 C24 1 24 1 25 0 C26.49738124 -0.0979057 27.99942892 -0.12974864 29.5 -0.125 C30.3146875 -0.12757813 31.129375 -0.13015625 31.96875 -0.1328125 C34 0 34 0 35 1 C35.09319449 2.5348297 35.117458 4.07392082 35.11352539 5.61157227 C35.11344986 6.59251358 35.11337433 7.5734549 35.11329651 8.5841217 C35.10813522 9.6507756 35.10297394 10.7174295 35.09765625 11.81640625 C35.0962413 12.9025975 35.09482635 13.98878876 35.09336853 15.1078949 C35.08775048 18.59279075 35.07519492 22.07762342 35.0625 25.5625 C35.05748733 27.91861887 35.05292402 30.27473874 35.04882812 32.63085938 C35.03777518 38.42059743 35.02049846 44.21028799 35 50 C31.37 50 27.74 50 24 50 C24 48.02 24 46.04 24 44 C22.35 44 20.7 44 19 44 C19 41.69 19 39.38 19 37 C18.01 37 17.02 37 16 37 C16 34.69 16 32.38 16 30 C14.68 30 13.36 30 12 30 C11.97494385 30.57032959 11.9498877 31.14065918 11.92407227 31.72827148 C11.80843451 34.29826157 11.68556376 36.86785527 11.5625 39.4375 C11.50352539 40.78424805 11.50352539 40.78424805 11.44335938 42.15820312 C11.40146484 43.01220703 11.35957031 43.86621094 11.31640625 44.74609375 C11.27974854 45.53685303 11.24309082 46.3276123 11.20532227 47.14233398 C11 49 11 49 10 50 C6.7 50 3.4 50 0 50 C0 33.5 0 17 0 0 Z " fill="#060606" transform="translate(153,300)"/>
<path d="M0 0 C4.62 0 9.24 0 14 0 C15.5912689 4.873261 16.21192221 8.80790596 16 14 C16.99 14 17.98 14 19 14 C19 16.31 19 18.62 19 21 C19.66 21 20.32 21 21 21 C21.04898438 21.92683594 21.09796875 22.85367187 21.1484375 23.80859375 C21.22320313 25.00613281 21.29796875 26.20367187 21.375 27.4375 C21.47941406 29.22994141 21.47941406 29.22994141 21.5859375 31.05859375 C21.79089844 32.51458984 21.79089844 32.51458984 22 34 C22.99 34.495 22.99 34.495 24 35 C24 39.95 24 44.9 24 50 C16.28515625 50.09765625 16.28515625 50.09765625 14 50 C13 49 13 49 12.90234375 46.27734375 C12.93489583 43.18489583 12.96744792 40.09244792 13 37 C8.71 37 4.42 37 0 37 C0 41.29 0 45.58 0 50 C-3.3 50 -6.6 50 -10 50 C-11.30459914 47.39080172 -11.1326594 45.41057385 -11.125 42.5 C-11.12757813 41.5203125 -11.13015625 40.540625 -11.1328125 39.53125 C-11 37 -11 37 -10 35 C-9.34 35 -8.68 35 -8 35 C-8.05220703 33.7315625 -8.05220703 33.7315625 -8.10546875 32.4375 C-8.27115864 25.49430443 -7.96654088 20.30389938 -5 14 C-4.34 14 -3.68 14 -3 14 C-2.87625 12.989375 -2.7525 11.97875 -2.625 10.9375 C-2.01914665 7.12062388 -1.12806088 3.68499888 0 0 Z " fill="#0A0A0A" transform="translate(506,300)"/>
<path d="M0 0 C4.62 0 9.24 0 14 0 C14 2.31 14 4.62 14 7 C14.66 7 15.32 7 16 7 C16 9.31 16 11.62 16 14 C16.99 14 17.98 14 19 14 C19 16.31 19 18.62 19 21 C19.66 21 20.32 21 21 21 C21 25.62 21 30.24 21 35 C21.99 35 22.98 35 24 35 C24 39.95 24 44.9 24 50 C16.28515625 50.09765625 16.28515625 50.09765625 14 50 C13 49 13 49 12.90234375 46.27734375 C12.93489583 43.18489583 12.96744792 40.09244792 13 37 C8.71 37 4.42 37 0 37 C0 41.29 0 45.58 0 50 C-3.63 50 -7.26 50 -11 50 C-11 45.05 -11 40.1 -11 35 C-10.01 35 -9.02 35 -8 35 C-8.05220703 33.7315625 -8.05220703 33.7315625 -8.10546875 32.4375 C-8.27026822 25.53161743 -8.11086026 20.22172051 -5 14 C-4.34 13.67 -3.68 13.34 -3 13 C-2.37330801 10.83532539 -1.84572626 8.64135476 -1.375 6.4375 C-0.92125 4.313125 -0.4675 2.18875 0 0 Z " fill="#070707" transform="translate(292,300)"/>
<path d="M0 0 C3.63 0 7.26 0 11 0 C11.33 13.53 11.66 27.06 12 41 C15.96 41.33 19.92 41.66 24 42 C23.99476318 40.7632251 23.98952637 39.5264502 23.98413086 38.25219727 C23.96608439 33.68075275 23.95456929 29.10931141 23.94506836 24.5378418 C23.94002733 22.55606559 23.93319462 20.57429311 23.92456055 18.5925293 C23.91248485 15.75047891 23.90676955 12.90847753 23.90234375 10.06640625 C23.89718246 9.17474258 23.89202118 8.28307892 23.88670349 7.36439514 C23.88650823 5.24259399 23.9378997 3.1208922 24 1 C24.33 0.67 24.66 0.34 25 0 C28.3 0 31.6 0 35 0 C35 14.19 35 28.38 35 43 C33.68 43 32.36 43 31 43 C31 45.31 31 47.62 31 50 C22.42 50 13.84 50 5 50 C4.67 48.35 4.34 46.7 4 45 C2.68 44.34 1.36 43.68 0 43 C0 28.81 0 14.62 0 0 Z " fill="#080808" transform="translate(324,300)"/>
<path d="M0 0 C3.64581687 -0.02887512 7.29160463 -0.04675585 10.9375 -0.0625 C11.97841797 -0.07087891 13.01933594 -0.07925781 14.09179688 -0.08789062 C15.08115234 -0.09111328 16.07050781 -0.09433594 17.08984375 -0.09765625 C18.46450806 -0.10551147 18.46450806 -0.10551147 19.86694336 -0.11352539 C22 0 22 0 23 1 C23.04080783 2.99958364 23.04254356 5.00045254 23 7 C23.99 7 24.98 7 26 7 C27.125 12.625 27.125 12.625 26 16 C22.7 16 19.4 16 16 16 C16 13.69 16 11.38 16 9 C13.03 9 10.06 9 7 9 C6.67 11.31 6.34 13.62 6 16 C5.01 16.33 4.02 16.66 3 17 C3 22.61 3 28.22 3 34 C3.99 34.33 4.98 34.66 6 35 C6 37.31 6 39.62 6 42 C10.455 41.505 10.455 41.505 15 41 C15.33 37.37 15.66 33.74 16 30 C14.02 30 12.04 30 10 30 C10 27.03 10 24.06 10 21 C15.61 21 21.22 21 27 21 C27 28.26 27 35.52 27 43 C25.68 43 24.36 43 23 43 C23.020625 43.969375 23.04125 44.93875 23.0625 45.9375 C23 49 23 49 22 50 C20.36527118 50.08700342 18.72685945 50.10701063 17.08984375 50.09765625 C16.10048828 50.09443359 15.11113281 50.09121094 14.09179688 50.08789062 C13.05087891 50.07951172 12.00996094 50.07113281 10.9375 50.0625 C9.89271484 50.05798828 8.84792969 50.05347656 7.77148438 50.04882812 C5.1809334 50.03699913 2.59049441 50.02051689 0 50 C-0.33 48.02 -0.66 46.04 -1 44 C-1.99 43.67 -2.98 43.34 -4 43 C-4 41.02 -4 39.04 -4 37 C-5.32 37 -6.64 37 -8 37 C-8.72526532 29.15597666 -9.21074074 21.80255144 -8 14 C-6.68 14 -5.36 14 -4 14 C-4 11.69 -4 9.38 -4 7 C-2.68 7 -1.36 7 0 7 C0 4.69 0 2.38 0 0 Z " fill="#060606" transform="translate(461,300)"/>
<path d="M0 0 C8.58 0 17.16 0 26 0 C26 2.31 26 4.62 26 7 C27.32 7 28.64 7 30 7 C30 9.97 30 12.94 30 16 C26.7 16 23.4 16 20 16 C20 13.69 20 11.38 20 9 C15.38 9 10.76 9 6 9 C6 12.96 6 16.92 6 21 C12.6 21 19.2 21 26 21 C26.33 22.98 26.66 24.96 27 27 C27.99 27.33 28.98 27.66 30 28 C30.19517554 29.93674185 30.38087873 31.87444009 30.5625 33.8125 C30.71912109 35.43091797 30.71912109 35.43091797 30.87890625 37.08203125 C31 40 31 40 30 43 C29.01 43 28.02 43 27 43 C27.020625 43.969375 27.04125 44.93875 27.0625 45.9375 C27 49 27 49 26 50 C24.07332493 50.08748207 22.14348139 50.10697334 20.21484375 50.09765625 C18.46010742 50.09282227 18.46010742 50.09282227 16.66992188 50.08789062 C15.43822266 50.07951172 14.20652344 50.07113281 12.9375 50.0625 C11.08415039 50.05573242 11.08415039 50.05573242 9.19335938 50.04882812 C6.12885883 50.03699608 3.06445279 50.02051173 0 50 C-0.33 48.02 -0.66 46.04 -1 44 C-1.99 43.67 -2.98 43.34 -4 43 C-4 40.36 -4 37.72 -4 35 C-0.7 35 2.6 35 6 35 C6 37.31 6 39.62 6 42 C12.435 41.505 12.435 41.505 19 41 C19 37.37 19 33.74 19 30 C12.73 30 6.46 30 0 30 C0 27.69 0 25.38 0 23 C-1.32 23 -2.64 23 -4 23 C-4 17.72 -4 12.44 -4 7 C-3.01 6.67 -2.02 6.34 -1 6 C-0.67 4.02 -0.34 2.04 0 0 Z " fill="#060606" transform="translate(243,300)"/>
<path d="M0 0 C8.58 0 17.16 0 26 0 C26 2.64 26 5.28 26 8 C25 9 25 9 21.62109375 9.09765625 C20.22652923 9.09098369 18.83198257 9.07902532 17.4375 9.0625 C16.72658203 9.05798828 16.01566406 9.05347656 15.28320312 9.04882812 C13.52209987 9.03700864 11.76103964 9.01907263 10 9 C10 12.96 10 16.92 10 21 C15.28 21 20.56 21 26 21 C26 23.97 26 26.94 26 30 C20.72 30 15.44 30 10 30 C10.33 33.63 10.66 37.26 11 41 C15.95 41.33 20.9 41.66 26 42 C26 44.97 26 47.94 26 51 C17.09 51 8.18 51 -1 51 C-1.02291855 44.05822726 -1.042843 37.11658507 -1.05493164 30.17480469 C-1.05996959 27.81184444 -1.06680008 25.44888732 -1.07543945 23.0859375 C-1.08752854 19.69530465 -1.09323359 16.30471291 -1.09765625 12.9140625 C-1.10281754 11.85256989 -1.10797882 10.79107727 -1.11329651 9.69741821 C-1.11337204 8.71655243 -1.11344757 7.73568665 -1.11352539 6.72509766 C-1.115746 5.85905914 -1.11796661 4.99302063 -1.12025452 4.10073853 C-1 2 -1 2 0 0 Z " fill="#060606" transform="translate(586,300)"/>
<path d="M0 0 C0.91644287 0.00523682 1.83288574 0.01047363 2.77709961 0.01586914 C3.76645508 0.0190918 4.75581055 0.02231445 5.77514648 0.02563477 C6.81606445 0.03401367 7.85698242 0.04239258 8.92944336 0.05102539 C10.49662109 0.05779297 10.49662109 0.05779297 12.09545898 0.06469727 C14.68600996 0.07652627 17.27644895 0.0930085 19.86694336 0.11352539 C19.86694336 3.08352539 19.86694336 6.05352539 19.86694336 9.11352539 C17.88694336 9.11352539 15.90694336 9.11352539 13.86694336 9.11352539 C13.86694336 20.00352539 13.86694336 30.89352539 13.86694336 42.11352539 C15.84694336 42.11352539 17.82694336 42.11352539 19.86694336 42.11352539 C19.86694336 44.75352539 19.86694336 47.39352539 19.86694336 50.11352539 C12.27694336 50.11352539 4.68694336 50.11352539 -3.13305664 50.11352539 C-3.13305664 47.47352539 -3.13305664 44.83352539 -3.13305664 42.11352539 C-1.15305664 42.11352539 0.82694336 42.11352539 2.86694336 42.11352539 C2.86694336 31.22352539 2.86694336 20.33352539 2.86694336 9.11352539 C1.21694336 9.11352539 -0.43305664 9.11352539 -2.13305664 9.11352539 C-3.13305664 8.11352539 -3.13305664 8.11352539 -3.25805664 4.61352539 C-3.09917874 0.16494427 -3.09917874 0.16494427 0 0 Z " fill="#070707" transform="translate(119.133056640625,299.886474609375)"/>
<path d="M0 0 C32.67 0 65.34 0 99 0 C99 1.65 99 3.3 99 5 C66.33 5 33.66 5 0 5 C0 3.35 0 1.7 0 0 Z " fill="#090909" transform="translate(338,222)"/>
<path d="M0 0 C2.97 0 5.94 0 9 0 C9 2.31 9 4.62 9 7 C10.32 7 11.64 7 13 7 C13 13.27 13 19.54 13 26 C11.68 26 10.36 26 9 26 C9 28.31 9 30.62 9 33 C2.84765625 33.09765625 2.84765625 33.09765625 1 33 C0 32 0 32 -0.11352539 28.94897461 C-0.11336634 27.60008729 -0.10767612 26.25119386 -0.09765625 24.90234375 C-0.0962413 24.19348526 -0.09482635 23.48462677 -0.09336853 22.75428772 C-0.08775443 20.48198288 -0.07519963 18.20977525 -0.0625 15.9375 C-0.05748681 14.40039204 -0.05292359 12.86328255 -0.04882812 11.32617188 C-0.03778042 7.55074358 -0.02050641 3.77538829 0 0 Z " fill="#F3F3F3" transform="translate(78,309)"/>
<path d="M0 0 C23.1 0 46.2 0 70 0 C70 1.65 70 3.3 70 5 C46.9 5 23.8 5 0 5 C0 3.35 0 1.7 0 0 Z " fill="#1B1B1B" transform="translate(237,222)"/>
<path d="M0 0 C2.31 0 4.62 0 7 0 C7 2.31 7 4.62 7 7 C7.99 7 8.98 7 10 7 C10.19425873 9.79134852 10.38069517 12.58283687 10.5625 15.375 C10.61857422 16.1690625 10.67464844 16.963125 10.73242188 17.78125 C11.11328125 23.7734375 11.11328125 23.7734375 10 26 C9.01 26 8.02 26 7 26 C7.020625 26.969375 7.04125 27.93875 7.0625 28.9375 C7 32 7 32 6 33 C4.00041636 33.04080783 1.99954746 33.04254356 0 33 C0 30.69 0 28.38 0 26 C-0.99 26 -1.98 26 -3 26 C-4.31909709 19.5510809 -3.69508823 13.51244208 -3 7 C-2.34 7 -1.68 7 -1 7 C-0.67 4.69 -0.34 2.38 0 0 Z " fill="#F3F3F3" transform="translate(210,309)"/>
<path d="M0 0 C10.83984375 -0.09765625 10.83984375 -0.09765625 14 0 C15 1 15 1 15.09765625 4.16015625 C15.04882812 9.58007812 15.04882812 9.58007812 15 15 C10.05 15 5.1 15 0 15 C0 10.05 0 5.1 0 0 Z " fill="#E0E0E0" transform="translate(224,40)"/>
<path d="M0 0 C13.86 0 27.72 0 42 0 C42 1.65 42 3.3 42 5 C28.14 5 14.28 5 0 5 C0 3.35 0 1.7 0 0 Z " fill="#1F1F1F" transform="translate(70,222)"/>
<path d="M0 0 C1.26328125 0.02707031 2.5265625 0.05414063 3.828125 0.08203125 C4.79234375 0.11683594 5.7565625 0.15164063 6.75 0.1875 C7.78901761 3.9230157 7.89650063 7.3052333 7.75 11.1875 C6.75 12.1875 6.75 12.1875 3.80859375 12.28515625 C2.01615234 12.26775391 2.01615234 12.26775391 0.1875 12.25 C-1.60880859 12.23646484 -1.60880859 12.23646484 -3.44140625 12.22265625 C-4.36824219 12.21105469 -5.29507813 12.19945312 -6.25 12.1875 C-6.25 9.8775 -6.25 7.5675 -6.25 5.1875 C-9.55 5.1875 -12.85 5.1875 -16.25 5.1875 C-16.25 4.8575 -16.25 4.5275 -16.25 4.1875 C-15.5075 4.084375 -14.765 3.98125 -14 3.875 C-11.23055323 3.40871987 -11.23055323 3.40871987 -9.53125 1.65625 C-6.30285508 -0.42230564 -3.79692893 -0.10547025 0 0 Z " fill="#EAEAEA" transform="translate(255.25,329.8125)"/>
<path d="M0 0 C9.57 0 19.14 0 29 0 C29.33 1.65 29.66 3.3 30 5 C29 6 29 6 26.22436523 6.11352539 C25.01466064 6.10828857 23.80495605 6.10305176 22.55859375 6.09765625 C21.25341797 6.09443359 19.94824219 6.09121094 18.60351562 6.08789062 C17.2148431 6.07953401 15.82617123 6.07106905 14.4375 6.0625 C13.04492344 6.05748666 11.65234519 6.05292347 10.25976562 6.04882812 C6.8398013 6.03699434 3.41992156 6.0205088 0 6 C0 4.02 0 2.04 0 0 Z " fill="#292929" transform="translate(570,247)"/>
<path d="M0 0 C15.18 0 30.36 0 46 0 C46 0.66 46 1.32 46 2 C47.98 2 49.96 2 52 2 C52 2.33 52 2.66 52 3 C33.85 3 15.7 3 -3 3 C-2.01 2.67 -1.02 2.34 0 2 C0 1.34 0 0.68 0 0 Z " fill="#232323" transform="translate(241,108)"/>
<path d="M0 0 C3.63 0 7.26 0 11 0 C11 3.96 11 7.92 11 12 C7.37 12 3.74 12 0 12 C0 8.04 0 4.08 0 0 Z " fill="#F2F2F2" transform="translate(378,309)"/>
<path d="M0 0 C6.6 0 13.2 0 20 0 C20 1.32 20 2.64 20 4 C13.4 4 6.8 4 0 4 C0 2.68 0 1.36 0 0 Z " fill="#040404" transform="translate(105,244)"/>
<path d="M0 0 C0.33 0 0.66 0 1 0 C1.33 2.97 1.66 5.94 2 9 C2.33 9 2.66 9 3 9 C3 11.97 3 14.94 3 18 C2.67 18 2.34 18 2 18 C1.67 19.65 1.34 21.3 1 23 C9.58 23 18.16 23 27 23 C27 23.33 27 23.66 27 24 C18.09 24 9.18 24 0 24 C0 16.08 0 8.16 0 0 Z " fill="#4D4D4D" transform="translate(585,327)"/>
<path d="M0 0 C5.28 0 10.56 0 16 0 C16 1.32 16 2.64 16 4 C10.72 4 5.44 4 0 4 C0 2.68 0 1.36 0 0 Z " fill="#050505" transform="translate(463,238)"/>
<path d="M0 0 C6.6 0 13.2 0 20 0 C20 0.99 20 1.98 20 3 C13.4 3 6.8 3 0 3 C0 2.01 0 1.02 0 0 Z " fill="#232323" transform="translate(374,251)"/>
<path d="M0 0 C0.99 0 1.98 0 3 0 C4.29243536 4.1196377 5.26252625 7.66831683 5 12 C2.69 12 0.38 12 -2 12 C-2 10.35 -2 8.7 -2 7 C-1.34 7 -0.68 7 0 7 C0 4.69 0 2.38 0 0 Z " fill="#C1C1C1" transform="translate(511,316)"/>
<path d="M0 0 C0.99 0 1.98 0 3 0 C4.29243536 4.1196377 5.26252625 7.66831683 5 12 C3.02 12 1.04 12 -1 12 C-1.33 10.35 -1.66 8.7 -2 7 C-1.34 7 -0.68 7 0 7 C0 4.69 0 2.38 0 0 Z " fill="#DFDFDF" transform="translate(297,316)"/>
<path d="M0 0 C5.61 0 11.22 0 17 0 C17 7.26 17 14.52 17 22 C16.67 22 16.34 22 16 22 C16 15.07 16 8.14 16 1 C12.04 1 8.08 1 4 1 C4 1.66 4 2.32 4 3 C2 4.625 2 4.625 0 6 C0 4.02 0 2.04 0 0 Z " fill="#464646" transform="translate(471,321)"/>
<path d="M0 0 C1.4540625 0.0309375 1.4540625 0.0309375 2.9375 0.0625 C2.9375 1.3825 2.9375 2.7025 2.9375 4.0625 C-4.9825 3.7325 -12.9025 3.4025 -21.0625 3.0625 C-21.0625 2.7325 -21.0625 2.4025 -21.0625 2.0625 C-19.23912109 1.97162109 -19.23912109 1.97162109 -17.37890625 1.87890625 C-15.79425772 1.79451668 -14.20962298 1.7098679 -12.625 1.625 C-11.82255859 1.58568359 -11.02011719 1.54636719 -10.19335938 1.50585938 C-6.44024161 1.29999216 -3.49683544 0.07136399 0 0 Z " fill="#0A0A0A" transform="translate(597.0625,247.9375)"/>
<path d="M0 0 C2.64 0 5.28 0 8 0 C8 1.65 8 3.3 8 5 C5.36 5 2.72 5 0 5 C0 3.35 0 1.7 0 0 Z " fill="#2B2B2B" transform="translate(293,255)"/>
<path d="M0 0 C0.99 0.495 0.99 0.495 2 1 C3.95774069 1.15378852 5.92017352 1.24971463 7.8828125 1.31640625 C9.04941406 1.35830078 10.21601562 1.40019531 11.41796875 1.44335938 C12.64128906 1.48267578 13.86460937 1.52199219 15.125 1.5625 C16.35605469 1.60568359 17.58710937 1.64886719 18.85546875 1.69335938 C21.90352853 1.79968704 24.9516719 1.90171781 28 2 C28 2.33 28 2.66 28 3 C19.42 3 10.84 3 2 3 C1.67 3.66 1.34 4.32 1 5 C0.67 3.35 0.34 1.7 0 0 Z " fill="#DADADA" transform="translate(584,297)"/>
<path d="M0 0 C1.18613892 0.07069702 1.18613892 0.07069702 2.39624023 0.14282227 C3.67724609 0.21533203 3.67724609 0.21533203 4.98413086 0.28930664 C5.88196289 0.34538086 6.77979492 0.40145508 7.70483398 0.45922852 C8.6065332 0.51143555 9.50823242 0.56364258 10.43725586 0.61743164 C12.67259948 0.74753101 14.90754288 0.88250788 17.14233398 1.02172852 C17.14233398 1.35172852 17.14233398 1.68172852 17.14233398 2.02172852 C14.35098546 2.21598725 11.55949711 2.40242368 8.76733398 2.58422852 C7.97327148 2.64030273 7.17920898 2.69637695 6.36108398 2.75415039 C0.36889648 3.13500977 0.36889648 3.13500977 -1.85766602 2.02172852 C-1.85766602 3.67172852 -1.85766602 5.32172852 -1.85766602 7.02172852 C-2.18766602 7.02172852 -2.51766602 7.02172852 -2.85766602 7.02172852 C-2.90020958 5.02218106 -2.89847384 3.02131215 -2.85766602 1.02172852 C-1.85766602 0.02172852 -1.85766602 0.02172852 0 0 Z " fill="#202020" transform="translate(118.857666015625,299.978271484375)"/>
<path d="M0 0 C2.64 0 5.28 0 8 0 C4.25 3 4.25 3 2 3 C1.87625 3.5775 1.7525 4.155 1.625 4.75 C0.99351176 7.02335767 0.11141809 8.9253529 -1 11 C-1.33 9.35 -1.66 7.7 -2 6 C-1.34 6 -0.68 6 0 6 C0 4.02 0 2.04 0 0 Z " fill="#1F1F1F" transform="translate(560,301)"/>
<path d="M0 0 C0.66 0.33 1.32 0.66 2 1 C2 6.61 2 12.22 2 18 C1.01 18 0.02 18 -1 18 C-1 17.34 -1 16.68 -1 16 C-0.34 16 0.32 16 1 16 C0.67 10.72 0.34 5.44 0 0 Z " fill="#212121" transform="translate(162,331)"/>
<path d="M0 0 C1.65 0 3.3 0 5 0 C5 1.65 5 3.3 5 5 C3.35 5 1.7 5 0 5 C0 3.35 0 1.7 0 0 Z " fill="#0E0E0E" transform="translate(543,240)"/>
<path d="M0 0 C1.32 0 2.64 0 4 0 C4 1.65 4 3.3 4 5 C2.35 5 0.7 5 -1 5 C-0.67 3.35 -0.34 1.7 0 0 Z " fill="#2C2C2C" transform="translate(426,250)"/>
<path d="M0 0 C0.33 0 0.66 0 1 0 C1 1.98 1 3.96 1 6 C4.3 6 7.6 6 11 6 C11 6.33 11 6.66 11 7 C5.06 7.495 5.06 7.495 -1 8 C-2 6 -2 6 -1.0625 2.875 C-0.5365625 1.451875 -0.5365625 1.451875 0 0 Z " fill="#C2C2C2" transform="translate(366,344)"/>
<path d="M0 0 C1.32 0 2.64 0 4 0 C4.33 0.99 4.66 1.98 5 3 C-0.28 3 -5.56 3 -11 3 C-11 2.67 -11 2.34 -11 2 C-5.555 1.505 -5.555 1.505 0 1 C0 0.67 0 0.34 0 0 Z " fill="#151515" transform="translate(474,239)"/>
<path d="M0 0 C0.33 0.99 0.66 1.98 1 3 C1.66 3.33 2.32 3.66 3 4 C2.505 4.45375 2.01 4.9075 1.5 5.375 C-0.22609337 6.87635519 -0.22609337 6.87635519 0 9 C-0.99 8.67 -1.98 8.34 -3 8 C-2.67 6.02 -2.34 4.04 -2 2 C-1.34 2 -0.68 2 0 2 C0 1.34 0 0.68 0 0 Z " fill="#EEEEEE" transform="translate(230,335)"/>
<path d="M0 0 C0.66 0 1.32 0 2 0 C2 0.66 2 1.32 2 2 C1.34 2 0.68 2 0 2 C0 2.99 0 3.98 0 5 C0.99 5 1.98 5 3 5 C3 5.66 3 6.32 3 7 C2.01 7.495 2.01 7.495 1 8 C1 8.99 1 9.98 1 11 C0.34 11 -0.32 11 -1 11 C-1.02688151 9.35425434 -1.04634123 7.70838587 -1.0625 6.0625 C-1.07410156 5.14597656 -1.08570312 4.22945313 -1.09765625 3.28515625 C-1 1 -1 1 0 0 Z " fill="#111111" transform="translate(92,325)"/>
<path d="M0 0 C0.33 0 0.66 0 1 0 C1.125 7.75 1.125 7.75 0 10 C-0.99 9.67 -1.98 9.34 -3 9 C-2.01 6.03 -1.02 3.06 0 0 Z " fill="#1C1C1C" transform="translate(230,327)"/>
<path d="M0 0 C0 1.32 0 2.64 0 4 C-1.98 4 -3.96 4 -6 4 C-6 3.01 -6 2.02 -6 1 C-4 0 -4 0 0 0 Z " fill="#F8F8F8" transform="translate(516,323)"/>
<path d="M0 0 C0.66 1.32 1.32 2.64 2 4 C1.67 4.33 1.34 4.66 1 5 C1.99 5.66 2.98 6.32 4 7 C2.02 7 0.04 7 -2 7 C-2.125 4.625 -2.125 4.625 -2 2 C-1.34 1.34 -0.68 0.68 0 0 Z " fill="#D8D8D8" transform="translate(135,335)"/>
<path d="M0 0 C0 2.64 0 5.28 0 8 C-1.32 7.34 -2.64 6.68 -4 6 C-3.67 5.01 -3.34 4.02 -3 3 C-3.33 2.34 -3.66 1.68 -4 1 C-1 0 -1 0 0 0 Z " fill="#151515" transform="translate(139,342)"/>
<path d="M0 0 C-0.33 1.98 -0.66 3.96 -1 6 C-1.99 6 -2.98 6 -4 6 C-4 4.35 -4 2.7 -4 1 C-2 0 -2 0 0 0 Z " fill="#D4D4D4" transform="translate(558,308)"/>
<path d="M0 0 C0.33 0 0.66 0 1 0 C1 3.3 1 6.6 1 10 C0.67 9.01 0.34 8.02 0 7 C-0.66 7 -1.32 7 -2 7 C-2 5.68 -2 4.36 -2 3 C-1.34 3 -0.68 3 0 3 C0 2.01 0 1.02 0 0 Z " fill="#E7E7E7" transform="translate(366,303)"/>
<path d="M0 0 C0.66 0 1.32 0 2 0 C2.33 1.98 2.66 3.96 3 6 C1.68 5.34 0.36 4.68 -1 4 C-0.67 2.68 -0.34 1.36 0 0 Z " fill="#E4E4E4" transform="translate(236,311)"/>
</svg>
