<?xml version="1.0" encoding="UTF-8"?>
<svg version="1.1" xmlns="http://www.w3.org/2000/svg" width="1536" height="1024">
<path d="M0 0 C506.88 0 1013.76 0 1536 0 C1536 337.92 1536 675.84 1536 1024 C1029.12 1024 522.24 1024 0 1024 C0 686.08 0 348.16 0 0 Z " fill="#FEFEFE" transform="translate(0,0)"/>
<path d="M0 0 C47.19 0 94.38 0 143 0 C143 7.26 143 14.52 143 22 C150.26 22 157.52 22 165 22 C165 29.26 165 36.52 165 44 C178.53 44 192.06 44 206 44 C206 50.93 206 57.86 206 65 C212.6 65 219.2 65 226 65 C226 71.6 226 78.2 226 85 C228.97 85.33 231.94 85.66 235 86 C249.62734574 91.20472476 259.47376369 101.2774411 266.19091797 115.15039062 C271.59723502 127.50955116 274.8515521 143.11817802 270.0625 156.0625 C269.70285156 156.91972656 269.34320312 157.77695313 268.97265625 158.66015625 C268.08178695 160.80325149 267.34773942 162.70588579 267 165 C268.39092892 167.62387135 268.39092892 167.62387135 270 170 C270 170.66 270 171.32 270 172 C211.55625 173.7625 211.55625 173.7625 186 172 C186 178.27 186 184.54 186 191 C179.07 191 172.14 191 165 191 C165 178.46 165 165.92 165 153 C192.06 153 219.12 153 247 153 C247 145.08 247 137.16 247 129 C240.07 129 233.14 129 226 129 C226 115.47 226 101.94 226 88 C198.61 88 171.22 88 143 88 C143 137.17 143 186.34 143 237 C176 237 209 237 243 237 C244.485 228.585 244.485 228.585 246 220 C246.33 219.01 246.66 218.02 247 217 C230.5 217 214 217 197 217 C198 207 198 207 202 193 C224.44 193 246.88 193 270 193 C267.87131439 210.02948491 261.56742494 225.1932081 250 238 C249.33484375 238.76957031 248.6696875 239.53914062 247.984375 240.33203125 C232.89745689 256.73207002 210.22939237 261.40394357 188.77124023 262.3347168 C182.11945518 262.54455593 175.46698862 262.62092159 168.8125 262.6875 C166.49021629 262.72076589 164.16794989 262.75526364 161.84570312 262.79101562 C156.23058836 262.87483629 150.6154539 262.94361362 145 263 C164.67412739 289.57833102 164.67412739 289.57833102 193.16964722 303.42292786 C206.50505232 304.65895856 219.73780632 303.54311936 233 302 C233 295.4 233 288.8 233 282 C258.74 282 284.48 282 311 282 C311 288.6 311 295.2 311 302 C317.6 302 324.2 302 331 302 C331 331.37 331 360.74 331 391 C324.4 391 317.8 391 311 391 C311 397.93 311 404.86 311 412 C304.07 412 297.14 412 290 412 C290 405.07 290 398.14 290 391 C248.75 391.33 207.5 391.66 165 392 C169.62 399.26 174.24 406.52 179 414 C183.04296875 420.36328125 183.04296875 420.36328125 184.65112305 422.89477539 C189.90796431 431.16722081 195.18898071 439.42266556 200.5378418 447.63598633 C201.34450413 448.87665528 202.14658128 450.12032414 202.94287109 451.36767578 C203.88241763 452.81843979 204.86971767 454.23802578 205.86328125 455.65234375 C207.33557199 458.69305418 206.86518115 459.75457916 206 463 C205.34583289 464.71783904 204.68876847 466.43485158 203.99797058 468.13829041 C200.00979469 478.01805656 197.78271143 488.02036192 195.6875 498.4375 C195.31275059 500.25079297 194.93649981 502.06377623 194.55883789 503.87646484 C193.97200311 506.6935307 193.38599257 509.51073413 192.80455017 512.32891846 C190.6113821 522.94865966 188.27558553 533.5364085 185.9375 544.125 C185.53914923 545.93412876 185.14095154 547.74329123 184.74291992 549.55249023 C183.82986957 553.70193797 182.91540681 557.85107152 182 562 C182.96824707 561.97905273 183.93649414 561.95810547 184.93408203 561.93652344 C188.54574645 561.86381488 192.15734691 561.81808944 195.76953125 561.78027344 C197.32921244 561.76022778 198.88881913 561.73298343 200.44824219 561.69824219 C202.69745314 561.64940874 204.9456659 561.62696185 207.1953125 561.609375 C208.23161301 561.57840729 208.23161301 561.57840729 209.28884888 561.54681396 C215.11915668 561.544146 218.36263611 563.71802557 222.65234375 567.4296875 C231.7568327 577.66877842 237 591.43373324 237 605 C185.52 605 134.04 605 81 605 C81 592.60404624 81 592.60404624 83.375 586.0625 C83.59671875 585.43021484 83.8184375 584.79792969 84.046875 584.14648438 C85.18282866 580.96247308 86.48422712 578.03154577 88 575 C88.33 569.06 88.66 563.12 89 557 C71.51 557 54.02 557 36 557 C36 554.69 36 552.38 36 550 C53.49 550 70.98 550 89 550 C89 535.81 89 521.62 89 507 C85.37 506.34 81.74 505.68 78 505 C75.56145121 504.429853 73.12919752 503.83147158 70.70703125 503.1953125 C69.76177582 502.94906631 69.76177582 502.94906631 68.79742432 502.69784546 C66.80148427 502.17717482 64.80700967 501.65111996 62.8125 501.125 C60.74707013 500.58499916 58.68127345 500.0464173 56.61546326 499.50787354 C55.26716478 499.15625502 53.91898773 498.80417052 52.57093811 498.45159912 C45.39504625 496.5756827 38.20164876 494.7741501 31 493 C30.64228516 494.22589844 30.64228516 494.22589844 30.27734375 495.4765625 C28.7469535 499.69800595 26.75220383 503.46412052 24.5625 507.375 C24.12365479 508.16011963 23.68480957 508.94523926 23.23266602 509.75415039 C18.63316441 517.84494772 13.5089839 525.50378618 8 533 C7.319375 533.92683594 6.63875 534.85367188 5.9375 535.80859375 C-7.2942218 552.78758051 -23.50264936 567.0525884 -42 578 C-36.33966874 582.97865696 -29.61091008 586.40214135 -23.10351562 590.13476562 C-9.88791657 597.81325267 -9.88791657 597.81325267 -6.1875 604.125 C-5.78917969 604.78757812 -5.39085937 605.45015625 -4.98046875 606.1328125 C-3.07374235 609.76394883 -2.89007152 612.65607896 -2.9375 616.6875 C-2.94652344 617.68136719 -2.95554687 618.67523437 -2.96484375 619.69921875 C-2.98224609 620.83810547 -2.98224609 620.83810547 -3 622 C-20.46335869 622.25723255 -37.92612434 622.45106639 -55.39094543 622.56993389 C-63.50069595 622.62659965 -71.60926788 622.70381621 -79.71826172 622.82983398 C-86.7881303 622.93965064 -93.85714531 623.01048033 -100.92784309 623.03497344 C-104.67054068 623.04928754 -108.41079702 623.08278963 -112.15270996 623.16303062 C-116.33596897 623.25200388 -120.51501627 623.25387912 -124.69921875 623.2487793 C-125.93280624 623.28832733 -127.16639374 623.32787537 -128.43736267 623.36862183 C-133.54992638 623.30121569 -136.70779993 623.23267989 -140.50727844 619.60820961 C-142.56183967 616.81939219 -144.31527347 614.02365279 -146 611 C-146.85377664 609.65834424 -147.71267664 608.3198958 -148.58203125 606.98828125 C-149.3291519 605.76523155 -150.07264275 604.53995717 -150.8125 603.3125 C-154.83431632 596.72268066 -159.12738994 590.37226162 -163.68481445 584.13989258 C-164.86652298 582.47853317 -165.94363334 580.74374298 -167 579 C-165.72852174 575.18556522 -164.02754257 574.20674979 -160.875 571.75 C-141.55738426 556.2660348 -122.07672637 530.89175879 -117 506 C-117.55241529 502.67860306 -118.89266388 500.16150912 -120.5625 497.25 C-121.01753906 496.45078125 -121.47257813 495.6515625 -121.94140625 494.828125 C-122.46541016 493.92320312 -122.46541016 493.92320312 -123 493 C-123.66 493 -124.32 493 -125 493 C-125.52956299 494.0669812 -125.52956299 494.0669812 -126.06982422 495.15551758 C-127.66945507 498.37555713 -129.27218959 501.59404202 -130.875 504.8125 C-131.43058594 505.93205078 -131.98617187 507.05160156 -132.55859375 508.20507812 C-133.09355469 509.27822266 -133.62851562 510.35136719 -134.1796875 511.45703125 C-134.67194824 512.44678955 -135.16420898 513.43654785 -135.67138672 514.45629883 C-137 517 -137 517 -139 520 C-142.04983521 520.36076355 -142.04983521 520.36076355 -146.02001953 520.34057617 C-147.10310394 520.34123329 -147.10310394 520.34123329 -148.20806885 520.34190369 C-150.59992308 520.33980999 -152.9910804 520.31645257 -155.3828125 520.29296875 C-157.03904843 520.28737484 -158.69528932 520.28310377 -160.35153198 520.28010559 C-164.7147996 520.26864063 -169.07776852 520.23915948 -173.44091797 520.20599365 C-177.89156045 520.17532818 -182.34225111 520.16160781 -186.79296875 520.14648438 C-195.52879831 520.1142911 -204.26432761 520.06150993 -213 520 C-213 512.74 -213 505.48 -213 498 C-221.25 498 -229.5 498 -238 498 C-238 491.07 -238 484.14 -238 477 C-244.27 477 -250.54 477 -257 477 C-257 470.07 -257 463.14 -257 456 C-262.28 456 -267.56 456 -273 456 C-273 448.74 -273 441.48 -273 434 C-277.29 434 -281.58 434 -286 434 C-286 411.56 -286 389.12 -286 366 C-279.07 366 -272.14 366 -265 366 C-265 372.93 -265 379.86 -265 387 C-258.07 387 -251.14 387 -244 387 C-244 394.26 -244 401.52 -244 409 C-237.73 409 -231.46 409 -225 409 C-225 414.94 -225 420.88 -225 427 C-214.11 427 -203.22 427 -192 427 C-192 421.06 -192 415.12 -192 409 C-197.28 409 -202.56 409 -208 409 C-208 367.75 -208 326.5 -208 284 C-201.4 284 -194.8 284 -188 284 C-188 276.74 -188 269.48 -188 262 C-181.73 262 -175.46 262 -169 262 C-169 253.75 -169 245.5 -169 237 C-161.74 237 -154.48 237 -147 237 C-147 230.07 -147 223.14 -147 216 C-140.4 216 -133.8 216 -127 216 C-127 209.07 -127 202.14 -127 195 C-120.07 195 -113.14 195 -106 195 C-106 187.74 -106 180.48 -106 173 C-99.07 173 -92.14 173 -85 173 C-85 166.4 -85 159.8 -85 153 C-78.07 153 -71.14 153 -64 153 C-64 145.74 -64 138.48 -64 131 C-57.4 131 -50.8 131 -44 131 C-44 124.07 -44 117.14 -44 110 C-37.07 110 -30.14 110 -23 110 C-23 80.96 -23 51.92 -23 22 C-15.41 22 -7.82 22 0 22 C0 14.74 0 7.48 0 0 Z " fill="#020202" transform="translate(502,71)"/>
<path d="M0 0 C9.24 0 18.48 0 28 0 C28 4.95 28 9.9 28 15 C32.95 15 37.9 15 43 15 C43 92.22 43 169.44 43 249 C54.22 249 65.44 249 77 249 C77 203.13 77 157.26 77 110 C81.29 110 85.58 110 90 110 C90 105.38 90 100.76 90 96 C97.92 96 105.84 96 114 96 C114 100.62 114 105.24 114 110 C118.95 110 123.9 110 129 110 C129 157.52 129 205.04 129 254 C124.05 254 119.1 254 114 254 C114 259.61 114 265.22 114 271 C106.41 271 98.82 271 91 271 C91 276.28 91 281.56 91 287 C75.16 287 59.32 287 43 287 C43 349.04 43 411.08 43 475 C7.36 475 -28.28 475 -65 475 C-65 473.02 -65 471.04 -65 469 C-47.84 469 -30.68 469 -13 469 C-13 414.22 -13 359.44 -13 303 C-28.51 303 -44.02 303 -60 303 C-60 298.71 -60 294.42 -60 290 C-66.27 290 -72.54 290 -79 290 C-79 284.39 -79 278.78 -79 273 C-83.29 273 -87.58 273 -92 273 C-92 227.79 -92 182.58 -92 136 C-87.71 136 -83.42 136 -79 136 C-79 131.05 -79 126.1 -79 121 C-72.4 121 -65.8 121 -59 121 C-59 125.95 -59 130.9 -59 136 C-54.38 136 -49.76 136 -45 136 C-45 178.57 -45 221.14 -45 265 C-34.44 265 -23.88 265 -13 265 C-13 182.5 -13 100 -13 15 C-8.71 15 -4.42 15 0 15 C0 10.05 0 5.1 0 0 Z " fill="#020202" transform="translate(1196,166)"/>
<path d="M0 0 C0.85428589 -0.00630432 1.70857178 -0.01260864 2.58874512 -0.019104 C3.51272095 -0.01505554 4.43669678 -0.01100708 5.38867188 -0.00683594 C6.80895691 -0.00970612 6.80895691 -0.00970612 8.25793457 -0.01263428 C10.26196559 -0.01399667 12.26600542 -0.0102965 14.27001953 -0.00195312 C17.34492741 0.00874559 20.41925101 -0.00184666 23.49414062 -0.01464844 C25.43815234 -0.01332685 27.38216368 -0.01076448 29.32617188 -0.00683594 C30.71213562 -0.01290863 30.71213562 -0.01290863 32.12609863 -0.019104 C33.40752747 -0.00964752 33.40752747 -0.00964752 34.71484375 0 C35.4682605 0.00159119 36.22167725 0.00318237 36.9979248 0.00482178 C38.85742188 0.25878906 38.85742188 0.25878906 40.85742188 2.25878906 C41.05273438 4.42285156 41.05273438 4.42285156 40.98242188 6.88378906 C40.964375 7.70105469 40.94632813 8.51832031 40.92773438 9.36035156 C40.90453125 9.98683594 40.88132812 10.61332031 40.85742188 11.25878906 C42.77554688 11.19691406 42.77554688 11.19691406 44.73242188 11.13378906 C46.91210938 11.06347656 46.91210938 11.06347656 48.85742188 11.25878906 C51.7252367 14.12660389 51.11765995 16.12280863 51.13208008 20.1394043 C51.13719101 20.84688812 51.14230194 21.55437195 51.14756775 22.28329468 C51.16149749 24.62807616 51.16050445 26.97256481 51.15820312 29.31738281 C51.16208831 30.94401662 51.16642261 32.57064942 51.17118835 34.19728088 C51.17865791 37.60949998 51.17835408 41.02161562 51.1730957 44.43383789 C51.16730115 48.81004467 51.18422789 53.18582821 51.20744038 57.56196499 C51.22216137 60.92225121 51.22305165 64.28243513 51.21993065 67.64274788 C51.22044472 69.25631613 51.22569859 70.86988998 51.23574257 72.48342705 C51.24805793 74.73882536 51.24134551 76.99339459 51.22973633 79.2487793 C51.23036575 80.53292221 51.23099518 81.81706512 51.23164368 83.14012146 C50.85742188 86.25878906 50.85742188 86.25878906 49.56462097 88.18519592 C46.78725137 89.93177894 44.03979964 89.43892365 40.85742188 89.25878906 C40.880625 89.88527344 40.90382813 90.51175781 40.92773438 91.15722656 C40.94578125 91.97449219 40.96382812 92.79175781 40.98242188 93.63378906 C41.005625 94.44589844 41.02882813 95.25800781 41.05273438 96.09472656 C40.85742188 98.25878906 40.85742188 98.25878906 38.85742188 100.25878906 C36.9979248 100.51275635 36.9979248 100.51275635 34.71484375 100.51757812 C33.86055786 100.52388245 33.00627197 100.53018677 32.12609863 100.53668213 C31.2021228 100.53263367 30.27814697 100.52858521 29.32617188 100.52441406 C28.37931519 100.52632751 27.4324585 100.52824097 26.45690918 100.5302124 C24.45287816 100.53157479 22.44883833 100.52787462 20.44482422 100.51953125 C17.36991634 100.50883254 14.29559274 100.51942478 11.22070312 100.53222656 C9.27669141 100.53090498 7.33268007 100.5283426 5.38867188 100.52441406 C4.46469604 100.52846252 3.54072021 100.53251099 2.58874512 100.53668213 C1.30731628 100.52722565 1.30731628 100.52722565 0 100.51757812 C-0.75341675 100.51598694 -1.5068335 100.51439575 -2.28308105 100.51275635 C-4.14257812 100.25878906 -4.14257812 100.25878906 -6.14257812 98.25878906 C-6.33789062 96.09472656 -6.33789062 96.09472656 -6.26757812 93.63378906 C-6.24953125 92.81652344 -6.23148438 91.99925781 -6.21289062 91.15722656 C-6.1896875 90.53074219 -6.16648437 89.90425781 -6.14257812 89.25878906 C-7.23570312 89.32066406 -8.32882812 89.38253906 -9.45507812 89.44628906 C-13.14257812 89.25878906 -13.14257812 89.25878906 -14.84977722 88.19093323 C-16.83163064 85.22897172 -16.51660108 82.69086068 -16.51489258 79.15698242 C-16.51854324 78.43799271 -16.52219391 77.71900299 -16.5259552 76.97822571 C-16.53406197 74.60145456 -16.52045145 72.22536485 -16.50585938 69.84863281 C-16.50534084 68.19861349 -16.50585829 66.54859354 -16.50737 64.89857483 C-16.50728027 61.44099706 -16.49684935 57.98365245 -16.47875977 54.52612305 C-16.45605473 50.08825633 -16.45553162 45.65072984 -16.46227741 41.21282101 C-16.46561415 37.80624859 -16.4589932 34.39975413 -16.44914818 30.99319649 C-16.44529211 29.3564857 -16.44414964 27.71976625 -16.44573402 26.08305168 C-16.44610373 23.79893245 -16.43351217 21.51525432 -16.41723633 19.23120117 C-16.41262894 17.93008896 -16.40802155 16.62897675 -16.40327454 15.28843689 C-16.14257812 12.25878906 -16.14257812 12.25878906 -14.14257812 10.25878906 C-11.45418428 9.98887 -8.85115876 10.17141549 -6.14257812 10.25878906 C-6.18382812 8.98003906 -6.22507812 7.70128906 -6.26757812 6.38378906 C-6.33789062 4.20410156 -6.33789062 4.20410156 -6.14257812 2.25878906 C-3.75410985 -0.12967921 -3.25037237 0.00686466 0 0 Z " fill="#070707" transform="translate(580.142578125,785.7412109375)"/>
<path d="M0 0 C1.58669495 -0.00472824 1.58669495 -0.00472824 3.20544434 -0.009552 C4.93196228 -0.00651566 4.93196228 -0.00651566 6.69335938 -0.00341797 C8.45226501 -0.00485306 8.45226501 -0.00485306 10.2467041 -0.00631714 C12.73169 -0.00699917 15.21667766 -0.00514331 17.70166016 -0.00097656 C21.52054825 0.00437134 25.33931872 -0.00092083 29.15820312 -0.00732422 C31.56575547 -0.00666344 33.97330774 -0.00538229 36.38085938 -0.00341797 C38.10737732 -0.00645432 38.10737732 -0.00645432 39.86877441 -0.009552 C40.92657104 -0.00639984 41.98436768 -0.00324768 43.07421875 0 C44.47867249 0.00119339 44.47867249 0.00119339 45.91149902 0.00241089 C48.03710938 0.12939453 48.03710938 0.12939453 49.03710938 1.12939453 C49.10890901 2.64867491 49.12102945 4.17106935 49.09960938 5.69189453 C49.09058594 6.51818359 49.0815625 7.34447266 49.07226562 8.19580078 C49.06066406 8.83388672 49.0490625 9.47197266 49.03710938 10.12939453 C49.66359375 10.10619141 50.29007813 10.08298828 50.93554688 10.05908203 C51.7528125 10.04103516 52.57007813 10.02298828 53.41210938 10.00439453 C54.22421875 9.98119141 55.03632812 9.95798828 55.87304688 9.93408203 C58.03710938 10.12939453 58.03710938 10.12939453 60.03710938 12.12939453 C60.224945 15.20291388 60.2925786 18.18481931 60.26757812 21.25830078 C60.2671199 22.16313705 60.26666168 23.06797333 60.26618958 24.00022888 C60.26316608 25.9143098 60.25527687 27.82838823 60.24291992 29.74243164 C60.22466238 32.68335618 60.22241021 35.62396611 60.22265625 38.56494141 C60.21774124 40.42106394 60.21191299 42.27718433 60.20507812 44.13330078 C60.2039653 45.01869034 60.20285248 45.9040799 60.20170593 46.81629944 C60.15315467 53.01334924 60.15315467 53.01334924 59.03710938 54.12939453 C55.36795167 54.27249741 51.70995496 54.17161115 48.03710938 54.12939453 C48.53210937 62.54439453 48.53210937 62.54439453 49.03710938 71.12939453 C52.00710938 72.11939453 52.00710938 72.11939453 55.03710938 73.12939453 C55.03710938 76.75939453 55.03710938 80.38939453 55.03710938 84.12939453 C57.01710938 84.12939453 58.99710938 84.12939453 61.03710938 84.12939453 C61.06396033 86.60863254 61.08387485 89.08758293 61.09960938 91.56689453 C61.10798828 92.27394531 61.11636719 92.98099609 61.125 93.70947266 C61.13364525 95.51633013 61.08930949 97.32327056 61.03710938 99.12939453 C59.29165333 100.87485058 56.8758672 100.25962613 54.50585938 100.26220703 C53.38566406 100.26349609 52.26546875 100.26478516 51.11132812 100.26611328 C49.93183594 100.26224609 48.75234375 100.25837891 47.53710938 100.25439453 C45.76787109 100.26019531 45.76787109 100.26019531 43.96289062 100.26611328 C42.84269531 100.26482422 41.7225 100.26353516 40.56835938 100.26220703 C39.53259766 100.2610791 38.49683594 100.25995117 37.4296875 100.25878906 C35.03710938 100.12939453 35.03710938 100.12939453 34.03710938 99.12939453 C33.96391316 96.432846 33.944684 93.76247995 33.97460938 91.06689453 C33.97912109 90.30828125 33.98363281 89.54966797 33.98828125 88.76806641 C34.00010257 86.88847582 34.0180386 85.00892554 34.03710938 83.12939453 C32.90273437 83.15001953 31.76835938 83.17064453 30.59960938 83.19189453 C27.03710938 83.12939453 27.03710938 83.12939453 26.03710938 82.12939453 C25.96505426 80.44330487 25.9532487 78.75438794 25.97460938 77.06689453 C25.98363281 76.14779297 25.99265625 75.22869141 26.00195312 74.28173828 C26.01355469 73.57146484 26.02515625 72.86119141 26.03710938 72.12939453 C23.39710937 72.12939453 20.75710938 72.12939453 18.03710938 72.12939453 C18.04758301 72.90653809 18.05805664 73.68368164 18.06884766 74.484375 C18.1103122 77.99101553 18.13640516 81.49760459 18.16210938 85.00439453 C18.17886719 86.22771484 18.195625 87.45103516 18.21289062 88.71142578 C18.21933594 89.87802734 18.22578125 91.04462891 18.23242188 92.24658203 C18.24289551 93.32536621 18.25336914 94.40415039 18.26416016 95.515625 C18.03710938 98.12939453 18.03710938 98.12939453 16.03710938 100.12939453 C14.00585938 100.38818359 14.00585938 100.38818359 11.53710938 100.39501953 C10.65023438 100.39759766 9.76335937 100.40017578 8.84960938 100.40283203 C7.92148438 100.39509766 6.99335937 100.38736328 6.03710938 100.37939453 C5.10898438 100.38712891 4.18085937 100.39486328 3.22460938 100.40283203 C1.89429688 100.39896484 1.89429688 100.39896484 0.53710938 100.39501953 C-0.27757812 100.39276367 -1.09226562 100.39050781 -1.93164062 100.38818359 C-3.96289062 100.12939453 -3.96289062 100.12939453 -5.96289062 98.12939453 C-6.15660218 95.06098583 -6.22501145 92.08311797 -6.20581055 89.01391602 C-6.20770889 88.06913391 -6.20960724 87.12435181 -6.21156311 86.15093994 C-6.21527818 83.01737256 -6.20455701 79.88403518 -6.19335938 76.75048828 C-6.19216797 74.58097867 -6.19171433 72.41146854 -6.19197083 70.24195862 C-6.19040474 65.69146504 -6.18210495 61.14105 -6.16870117 56.59057617 C-6.15170107 50.74355932 -6.14788704 44.89662878 -6.14864635 39.04959011 C-6.14837507 34.56906808 -6.14290081 30.0885651 -6.13564491 25.60804939 C-6.13245212 23.45136726 -6.13048942 21.29468295 -6.12975121 19.13799858 C-6.12759465 16.13045408 -6.11886563 13.12300309 -6.1081543 10.11547852 C-6.10860748 9.21519424 -6.10906067 8.31490997 -6.10952759 7.38734436 C-6.07087955 0.00515854 -6.07087955 0.00515854 0 0 Z " fill="#050505" transform="translate(1024.962890625,785.87060546875)"/>
<path d="M0 0 C1.02996094 -0.00128906 2.05992187 -0.00257813 3.12109375 -0.00390625 C4.74724609 0.00189453 4.74724609 0.00189453 6.40625 0.0078125 C7.49035156 0.00394531 8.57445312 0.00007812 9.69140625 -0.00390625 C10.72136719 -0.00261719 11.75132812 -0.00132812 12.8125 0 C14.24045898 0.00169189 14.24045898 0.00169189 15.69726562 0.00341797 C17.90625 0.1328125 17.90625 0.1328125 18.90625 1.1328125 C18.97804964 2.65209288 18.99017007 4.17448732 18.96875 5.6953125 C18.95972656 6.52160156 18.95070313 7.34789062 18.94140625 8.19921875 C18.92980469 8.83730469 18.91820312 9.47539063 18.90625 10.1328125 C20.329375 10.0709375 20.329375 10.0709375 21.78125 10.0078125 C24.90625 10.1328125 24.90625 10.1328125 26.90625 12.1328125 C27.1015625 14.953125 27.1015625 14.953125 27.03125 18.2578125 C27.01320313 19.35351562 26.99515625 20.44921875 26.9765625 21.578125 C26.95335937 22.42117188 26.93015625 23.26421875 26.90625 24.1328125 C28.3603125 24.101875 28.3603125 24.101875 29.84375 24.0703125 C32.90625 24.1328125 32.90625 24.1328125 33.90625 25.1328125 C33.97869053 27.15245449 33.99002188 29.17448374 33.96875 31.1953125 C33.95972656 32.30003906 33.95070313 33.40476562 33.94140625 34.54296875 C33.92980469 35.39761719 33.91820312 36.25226562 33.90625 37.1328125 C37.20625 37.1328125 40.50625 37.1328125 43.90625 37.1328125 C43.90101318 36.04750244 43.89577637 34.96219238 43.89038086 33.84399414 C43.87233164 29.83163268 43.86081829 25.81927483 43.85131836 21.80688477 C43.84627796 20.06762082 43.8394457 18.32836114 43.83081055 16.58911133 C43.81873208 14.09455313 43.81301892 11.60005077 43.80859375 9.10546875 C43.80343246 8.32317398 43.79827118 7.54087921 43.79295349 6.73487854 C43.79275774 4.86714136 43.84425306 2.99952046 43.90625 1.1328125 C45.52825515 -0.48919265 47.32648031 0.002905 49.5625 0 C50.50222656 -0.00128906 51.44195313 -0.00257813 52.41015625 -0.00390625 C53.39886719 -0.00003906 54.38757813 0.00382813 55.40625 0.0078125 C56.88931641 0.00201172 56.88931641 0.00201172 58.40234375 -0.00390625 C59.81193359 -0.00197266 59.81193359 -0.00197266 61.25 0 C62.11818359 0.00112793 62.98636719 0.00225586 63.88085938 0.00341797 C65.90625 0.1328125 65.90625 0.1328125 66.90625 1.1328125 C67.00689199 4.17147011 67.0423959 7.1874398 67.03564453 10.2265625 C67.03827301 11.65814697 67.03827301 11.65814697 67.04095459 13.11865234 C67.04537487 16.29005727 67.0424345 19.46140695 67.0390625 22.6328125 C67.03973549 24.82617198 67.04070547 27.0195314 67.04196167 29.21289062 C67.04343888 33.81641345 67.04128334 38.41991692 67.03662109 43.0234375 C67.0309238 48.93885845 67.03420268 54.85423404 67.04019356 60.76965332 C67.04379854 65.30078476 67.04266087 69.83190535 67.04006577 74.36303711 C67.03939632 76.54484055 67.04022552 78.72664496 67.04254532 80.90844727 C67.04507082 83.9520124 67.0412327 86.99550296 67.03564453 90.0390625 C67.03766876 90.95026855 67.03969299 91.86147461 67.04177856 92.80029297 C67.02051229 99.01855021 67.02051229 99.01855021 65.90625 100.1328125 C64.42972336 100.23162047 62.94857764 100.26360495 61.46875 100.265625 C60.12683594 100.26755859 60.12683594 100.26755859 58.7578125 100.26953125 C57.34628906 100.26373047 57.34628906 100.26373047 55.90625 100.2578125 C54.49472656 100.26361328 54.49472656 100.26361328 53.0546875 100.26953125 C52.16007813 100.26824219 51.26546875 100.26695312 50.34375 100.265625 C49.51746094 100.26449707 48.69117188 100.26336914 47.83984375 100.26220703 C45.90625 100.1328125 45.90625 100.1328125 44.90625 99.1328125 C44.83398498 97.27993748 44.8224378 95.42447372 44.84375 93.5703125 C44.85277344 92.55839844 44.86179687 91.54648437 44.87109375 90.50390625 C44.88269531 89.72144531 44.89429688 88.93898438 44.90625 88.1328125 C43.7925 88.1740625 42.67875 88.2153125 41.53125 88.2578125 C37.90625 88.1328125 37.90625 88.1328125 35.90625 86.1328125 C35.7109375 83.3125 35.7109375 83.3125 35.78125 80.0078125 C35.79929687 78.91210938 35.81734375 77.81640625 35.8359375 76.6875 C35.85914063 75.84445312 35.88234375 75.00140625 35.90625 74.1328125 C34.771875 74.1534375 33.6375 74.1740625 32.46875 74.1953125 C28.90625 74.1328125 28.90625 74.1328125 27.90625 73.1328125 C27.81993126 71.79013837 27.79918527 70.44306928 27.80859375 69.09765625 C27.81181641 68.28876953 27.81503906 67.47988281 27.81835938 66.64648438 C27.83092773 65.3712793 27.83092773 65.3712793 27.84375 64.0703125 C27.84826172 63.21630859 27.85277344 62.36230469 27.85742188 61.48242188 C27.86924627 59.36585587 27.88718231 57.24932565 27.90625 55.1328125 C24.27625 55.1328125 20.64625 55.1328125 16.90625 55.1328125 C16.91410522 57.07099854 16.91410522 57.07099854 16.92211914 59.04833984 C16.94018367 63.83039663 16.95168736 68.61245039 16.96118164 73.39453125 C16.96621852 75.46647651 16.97304825 77.5384182 16.98168945 79.61035156 C16.99378321 82.58399332 16.99948467 85.55758819 17.00390625 88.53125 C17.00906754 89.46149994 17.01422882 90.39174988 17.01954651 91.35018921 C17.01965981 92.64130112 17.01965981 92.64130112 17.01977539 93.95849609 C17.021996 94.71794525 17.02421661 95.47739441 17.02650452 96.25985718 C16.90625 98.1328125 16.90625 98.1328125 15.90625 100.1328125 C12.42710059 100.16169064 8.94798169 100.17956937 5.46875 100.1953125 C3.97891602 100.20788086 3.97891602 100.20788086 2.45898438 100.22070312 C1.51474609 100.22392578 0.57050781 100.22714844 -0.40234375 100.23046875 C-1.27689209 100.23570557 -2.15144043 100.24094238 -3.05249023 100.24633789 C-5.09375 100.1328125 -5.09375 100.1328125 -6.09375 99.1328125 C-6.19439199 96.09415489 -6.2298959 93.0781852 -6.22314453 90.0390625 C-6.22489685 89.08467285 -6.22664917 88.1302832 -6.22845459 87.14697266 C-6.23287487 83.97556773 -6.2299345 80.80421805 -6.2265625 77.6328125 C-6.22723549 75.43945302 -6.22820547 73.2460936 -6.22946167 71.05273438 C-6.23093888 66.44921155 -6.22878334 61.84570808 -6.22412109 57.2421875 C-6.2184238 51.32676655 -6.22170268 45.41139096 -6.22769356 39.49597168 C-6.23129854 34.96484024 -6.23016087 30.43371965 -6.22756577 25.90258789 C-6.22689632 23.72078445 -6.22772552 21.53898004 -6.23004532 19.35717773 C-6.23257082 16.3136126 -6.2287327 13.27012204 -6.22314453 10.2265625 C-6.22516876 9.31535645 -6.22719299 8.40415039 -6.22927856 7.46533203 C-6.20377247 0.00735044 -6.20377247 0.00735044 0 0 Z " fill="#050505" transform="translate(655.09375,785.8671875)"/>
<path d="M0 0 C1.09783813 -0.00315216 2.19567627 -0.00630432 3.32678223 -0.009552 C5.11892151 -0.00651566 5.11892151 -0.00651566 6.94726562 -0.00341797 C8.16426147 -0.00437469 9.38125732 -0.00533142 10.63513184 -0.00631714 C13.21427461 -0.00699919 15.79341909 -0.00514319 18.37255859 -0.00097656 C22.33630198 0.00437131 26.29993204 -0.00092076 30.26367188 -0.00732422 C32.76237004 -0.00666344 35.26106814 -0.00538229 37.75976562 -0.00341797 C38.95452515 -0.0054422 40.14928467 -0.00746643 41.38024902 -0.009552 C42.47808716 -0.00639984 43.57592529 -0.00324768 44.70703125 0 C46.16477966 0.00119339 46.16477966 0.00119339 47.65197754 0.00241089 C49.85351562 0.12939453 49.85351562 0.12939453 50.85351562 1.12939453 C50.92531526 2.64867491 50.9374357 4.17106935 50.91601562 5.69189453 C50.90699219 6.51818359 50.89796875 7.34447266 50.88867188 8.19580078 C50.87707031 8.83388672 50.86546875 9.47197266 50.85351562 10.12939453 C52.15289063 10.10876953 53.45226563 10.08814453 54.79101562 10.06689453 C56.14517196 10.04539999 57.50107645 10.05791255 58.85351562 10.12939453 C60.41258345 11.68846235 59.98073934 13.19093734 59.98291016 15.35791016 C59.98606232 16.25554077 59.98921448 17.15317139 59.99246216 18.07800293 C59.98942581 19.54203552 59.98942581 19.54203552 59.98632812 21.03564453 C59.98728485 22.03067993 59.98824158 23.02571533 59.98922729 24.05090332 C59.98990922 26.15926171 59.98805406 28.26762218 59.98388672 30.37597656 C59.97853865 33.6154448 59.9838313 36.85477439 59.99023438 40.09423828 C59.9895736 42.13720734 59.98829244 44.18017631 59.98632812 46.22314453 C59.98835236 47.19916626 59.99037659 48.17518799 59.99246216 49.18078613 C59.98773392 50.52723206 59.98773392 50.52723206 59.98291016 51.90087891 C59.98211456 52.69506226 59.98131897 53.48924561 59.98049927 54.30749512 C59.85351562 56.12939453 59.85351562 56.12939453 58.85351562 57.12939453 C55.51733331 57.27196643 52.19375956 57.1716761 48.85351562 57.12939453 C48.85351562 61.74939453 48.85351562 66.36939453 48.85351562 71.12939453 C50.50351563 71.45939453 52.15351562 71.78939453 53.85351562 72.12939453 C54.85351562 73.12939453 54.85351562 73.12939453 54.95117188 75.63330078 C54.93957031 76.64263672 54.92796875 77.65197266 54.91601562 78.69189453 C54.90699219 79.70380859 54.89796875 80.71572266 54.88867188 81.75830078 C54.87707031 82.54076172 54.86546875 83.32322266 54.85351562 84.12939453 C56.50351563 84.12939453 58.15351562 84.12939453 59.85351562 84.12939453 C59.85351562 89.40939453 59.85351562 94.68939453 59.85351562 100.12939453 C56.0409694 100.15622246 52.22860951 100.17614931 48.41601562 100.19189453 C47.32740234 100.20027344 46.23878906 100.20865234 45.1171875 100.21728516 C44.08271484 100.22050781 43.04824219 100.22373047 41.98242188 100.22705078 C41.02408447 100.2322876 40.06574707 100.23752441 39.07836914 100.24291992 C36.85351562 100.12939453 36.85351562 100.12939453 35.85351562 99.12939453 C35.78031941 96.432846 35.76109025 93.76247995 35.79101562 91.06689453 C35.79552734 90.30828125 35.80003906 89.54966797 35.8046875 88.76806641 C35.81650882 86.88847582 35.83444485 85.00892554 35.85351562 83.12939453 C34.18289063 83.16033203 34.18289063 83.16033203 32.47851562 83.19189453 C28.85351562 83.12939453 28.85351562 83.12939453 26.85351562 82.12939453 C26.85351562 78.82939453 26.85351562 75.52939453 26.85351562 72.12939453 C23.55351563 72.12939453 20.25351563 72.12939453 16.85351562 72.12939453 C16.86137085 73.34840454 16.86137085 73.34840454 16.86938477 74.59204102 C16.89008557 78.25031775 16.90315365 81.9085822 16.91601562 85.56689453 C16.92439453 86.84628906 16.93277344 88.12568359 16.94140625 89.44384766 C16.94624023 91.26625977 16.94624023 91.26625977 16.95117188 93.12548828 C16.9590271 94.81436157 16.9590271 94.81436157 16.96704102 96.53735352 C16.85351562 99.12939453 16.85351562 99.12939453 15.85351562 100.12939453 C12.54912654 100.40703894 9.23069428 100.36114441 5.91601562 100.37939453 C4.98337891 100.40001953 4.05074219 100.42064453 3.08984375 100.44189453 C2.19845703 100.44705078 1.30707031 100.45220703 0.38867188 100.45751953 C-0.43238037 100.46686523 -1.25343262 100.47621094 -2.09936523 100.48583984 C-2.77491455 100.36821289 -3.45046387 100.25058594 -4.14648438 100.12939453 C-6.17102175 97.09258847 -6.39635424 96.53115703 -6.39372253 93.13082886 C-6.39791702 92.32039124 -6.40211151 91.50995361 -6.40643311 90.67495728 C-6.4008136 89.78964325 -6.39519409 88.90432922 -6.3894043 87.9921875 C-6.39130264 87.05701294 -6.39320099 86.12183838 -6.39515686 85.1583252 C-6.39886614 82.06265927 -6.38815957 78.96722715 -6.37695312 75.87158203 C-6.37576147 73.72592191 -6.37530813 71.58026127 -6.37556458 69.43460083 C-6.37399953 64.93716163 -6.36570711 60.439802 -6.35229492 55.94238281 C-6.33528464 50.16377563 -6.33148114 44.3852558 -6.3322401 38.60662651 C-6.33196885 34.17671874 -6.32649515 29.74683024 -6.31923866 25.31692886 C-6.31604631 23.18536653 -6.31408327 21.053802 -6.31334496 18.9222374 C-6.31118853 15.95072415 -6.30246009 12.97930557 -6.29174805 10.0078125 C-6.29220123 9.11845001 -6.29265442 8.22908752 -6.29312134 7.31277466 C-6.25439481 0.00512018 -6.25439481 0.00512018 0 0 Z " fill="#040404" transform="translate(1447.146484375,785.87060546875)"/>
<path d="M0 0 C1.29442017 0.00616333 1.29442017 0.00616333 2.61499023 0.01245117 C4.01974609 0.01535156 4.01974609 0.01535156 5.45288086 0.01831055 C6.43321289 0.03055664 7.41354492 0.04280273 8.42358398 0.05541992 C9.4077832 0.05606445 10.39198242 0.05670898 11.40600586 0.05737305 C18.72090866 0.1027446 18.72090866 0.1027446 19.86108398 1.24291992 C19.9331391 2.92900958 19.94494466 4.61792651 19.92358398 6.30541992 C19.91456055 7.22452148 19.90553711 8.14362305 19.89624023 9.09057617 C19.88463867 9.80084961 19.87303711 10.51112305 19.86108398 11.24291992 C21.28420898 11.18104492 21.28420898 11.18104492 22.73608398 11.11791992 C25.86108398 11.24291992 25.86108398 11.24291992 27.86108398 13.24291992 C28.05639648 15.84448242 28.05639648 15.84448242 27.98608398 18.86791992 C27.96803711 19.87081055 27.94999023 20.87370117 27.93139648 21.90698242 C27.90819336 22.6778418 27.88499023 23.44870117 27.86108398 24.24291992 C29.31514648 24.21198242 29.31514648 24.21198242 30.79858398 24.18041992 C33.86108398 24.24291992 33.86108398 24.24291992 34.86108398 25.24291992 C35.09536176 27.25886574 35.27444523 29.28139392 35.42358398 31.30541992 C35.50737305 32.41014648 35.59116211 33.51487305 35.67749023 34.65307617 C35.76836914 35.93504883 35.76836914 35.93504883 35.86108398 37.24291992 C38.83108398 37.57291992 41.80108398 37.90291992 44.86108398 38.24291992 C44.85584717 37.12731689 44.85061035 36.01171387 44.84521484 34.86230469 C44.82716623 30.7381266 44.8156525 26.61395202 44.80615234 22.48974609 C44.8011118 20.70197971 44.79427944 18.91421748 44.78564453 17.12646484 C44.77356668 14.56240824 44.76785304 11.99840595 44.76342773 9.43432617 C44.75826645 8.63015762 44.75310516 7.82598907 44.74778748 6.99745178 C44.74759183 5.07890277 44.79906416 3.16046624 44.86108398 1.24291992 C46.48308913 -0.37908523 48.28131429 0.11301242 50.51733398 0.11010742 C51.45706055 0.10881836 52.39678711 0.1075293 53.36499023 0.10620117 C54.35370117 0.11006836 55.34241211 0.11393555 56.36108398 0.11791992 C57.84415039 0.11211914 57.84415039 0.11211914 59.35717773 0.10620117 C60.76676758 0.10813477 60.76676758 0.10813477 62.20483398 0.11010742 C63.07301758 0.11123535 63.94120117 0.11236328 64.83569336 0.11352539 C66.86108398 0.24291992 66.86108398 0.24291992 67.86108398 1.24291992 C67.96172597 4.28157753 67.99722988 7.29754722 67.99047852 10.33666992 C67.99310699 11.76825439 67.99310699 11.76825439 67.99578857 13.22875977 C68.00020885 16.4001647 67.99726848 19.57151437 67.99389648 22.74291992 C67.99456947 24.93627941 67.99553946 27.12963882 67.99679565 29.32299805 C67.99827287 33.92652087 67.99611732 38.53002434 67.99145508 43.13354492 C67.98575778 49.04896587 67.98903666 54.96434146 67.99502754 60.87976074 C67.99863253 65.41089218 67.99749486 69.94201278 67.99489975 74.47314453 C67.99423031 76.65494797 67.9950595 78.83675238 67.9973793 81.01855469 C67.9999048 84.06211982 67.99606668 87.10561038 67.99047852 90.14916992 C67.99250275 91.06037598 67.99452698 91.97158203 67.99661255 92.91040039 C67.97534628 99.12865763 67.97534628 99.12865763 66.86108398 100.24291992 C65.3115284 100.34191516 63.75754726 100.37371516 62.20483398 100.37573242 C60.79524414 100.37766602 60.79524414 100.37766602 59.35717773 100.37963867 C57.87411133 100.37383789 57.87411133 100.37383789 56.36108398 100.36791992 C55.37237305 100.37178711 54.38366211 100.3756543 53.36499023 100.37963867 C52.42526367 100.37834961 51.48553711 100.37706055 50.51733398 100.37573242 C49.64915039 100.37460449 48.7809668 100.37347656 47.88647461 100.37231445 C45.86108398 100.24291992 45.86108398 100.24291992 44.86108398 99.24291992 C44.78864345 97.22327793 44.7773121 95.20124869 44.79858398 93.18041992 C44.80760742 92.07569336 44.81663086 90.9709668 44.82592773 89.83276367 C44.8375293 88.97811523 44.84913086 88.1234668 44.86108398 87.24291992 C42.55108398 87.24291992 40.24108398 87.24291992 37.86108398 87.24291992 C36.53879209 84.59833613 36.76431204 82.56530691 36.79858398 79.61791992 C36.80760742 78.6150293 36.81663086 77.61213867 36.82592773 76.57885742 C36.8375293 75.80799805 36.84913086 75.03713867 36.86108398 74.24291992 C35.89170898 74.26354492 34.92233398 74.28416992 33.92358398 74.30541992 C30.86108398 74.24291992 30.86108398 74.24291992 29.86108398 73.24291992 C29.78902887 71.55683026 29.77722331 69.86791333 29.79858398 68.18041992 C29.80760742 67.26131836 29.81663086 66.3422168 29.82592773 65.39526367 C29.8375293 64.68499023 29.84913086 63.9747168 29.86108398 63.24291992 C28.87108398 62.91291992 27.88108398 62.58291992 26.86108398 62.24291992 C26.86108398 59.93291992 26.86108398 57.62291992 26.86108398 55.24291992 C24.55108398 55.24291992 22.24108398 55.24291992 19.86108398 55.24291992 C19.87155762 56.53504395 19.88203125 57.82716797 19.89282227 59.15844727 C19.92895117 63.94048302 19.95195849 68.72250665 19.97094727 73.50463867 C19.9810211 75.57659939 19.99468064 77.64854585 20.01196289 79.72045898 C20.03615063 82.69412756 20.04755307 85.66760862 20.05639648 88.64135742 C20.06671906 89.57160736 20.07704163 90.5018573 20.087677 91.46029663 C20.08782806 92.3210379 20.08797913 93.18177917 20.08813477 94.06860352 C20.09257599 94.82805267 20.09701721 95.58750183 20.10159302 96.3699646 C19.86108398 98.24291992 19.86108398 98.24291992 17.86108398 100.24291992 C15.82983398 100.50170898 15.82983398 100.50170898 13.36108398 100.50854492 C12.47420898 100.51112305 11.58733398 100.51370117 10.67358398 100.51635742 C9.74545898 100.50862305 8.81733398 100.50088867 7.86108398 100.49291992 C6.93295898 100.5006543 6.00483398 100.50838867 5.04858398 100.51635742 C3.71827148 100.51249023 3.71827148 100.51249023 2.36108398 100.50854492 C1.54639648 100.50628906 0.73170898 100.5040332 -0.10766602 100.50170898 C-2.13891602 100.24291992 -2.13891602 100.24291992 -4.13891602 98.24291992 C-4.33785079 95.21027617 -4.41154676 92.26891426 -4.39770508 89.23510742 C-4.40120972 88.30168518 -4.40471436 87.36826294 -4.4083252 86.40655518 C-4.41715304 83.31026855 -4.41128963 80.21420901 -4.40454102 77.11791992 C-4.40588736 74.97322546 -4.40782764 72.8285313 -4.41033936 70.68383789 C-4.41329205 66.18462219 -4.4089883 61.68548579 -4.3996582 57.1862793 C-4.38826362 51.40882048 -4.39482232 45.63154746 -4.40680313 39.85409546 C-4.4140178 35.42413931 -4.41173561 30.99422747 -4.40654755 26.56427002 C-4.40520996 24.43353249 -4.40686255 22.30279099 -4.41150665 20.17205811 C-4.41656542 17.19817391 -4.40887078 14.22459387 -4.39770508 11.25073242 C-4.40377777 9.91972504 -4.40377777 9.91972504 -4.40997314 8.56182861 C-4.3536381 0.49444925 -4.3536381 0.49444925 0 0 Z " fill="#060606" transform="translate(309.138916015625,785.757080078125)"/>
<path d="M0 0 C0.98484375 -0.00128906 1.9696875 -0.00257813 2.984375 -0.00390625 C4.02078125 -0.00003906 5.0571875 0.00382813 6.125 0.0078125 C7.67960937 0.00201172 7.67960937 0.00201172 9.265625 -0.00390625 C10.25046875 -0.00261719 11.2353125 -0.00132812 12.25 0 C13.16007812 0.00112793 14.07015625 0.00225586 15.0078125 0.00341797 C17.125 0.1328125 17.125 0.1328125 18.125 1.1328125 C18.19679964 2.65209288 18.20892007 4.17448732 18.1875 5.6953125 C18.17847656 6.52160156 18.16945313 7.34789062 18.16015625 8.19921875 C18.14855469 8.83730469 18.13695312 9.47539063 18.125 10.1328125 C19.094375 10.1121875 20.06375 10.0915625 21.0625 10.0703125 C24.125 10.1328125 24.125 10.1328125 25.125 11.1328125 C25.35927778 13.14875832 25.53836124 15.1712865 25.6875 17.1953125 C25.81318359 18.85240234 25.81318359 18.85240234 25.94140625 20.54296875 C26.00199219 21.39761719 26.06257813 22.25226562 26.125 23.1328125 C28.435 23.7928125 30.745 24.4528125 33.125 25.1328125 C33.125 29.0928125 33.125 33.0528125 33.125 37.1328125 C36.095 37.1328125 39.065 37.1328125 42.125 37.1328125 C42.11976318 36.04750244 42.11452637 34.96219238 42.10913086 33.84399414 C42.09108164 29.83163268 42.07956829 25.81927483 42.07006836 21.80688477 C42.06502796 20.06762082 42.0581957 18.32836114 42.04956055 16.58911133 C42.03748208 14.09455313 42.03176892 11.60005077 42.02734375 9.10546875 C42.02218246 8.32317398 42.01702118 7.54087921 42.01170349 6.73487854 C42.01150774 4.86714136 42.06300306 2.99952046 42.125 1.1328125 C43.125 0.1328125 43.125 0.1328125 45.25805664 0.01928711 C46.17449951 0.02452393 47.09094238 0.02976074 48.03515625 0.03515625 C49.51918945 0.03999023 49.51918945 0.03999023 51.03320312 0.04492188 C52.07412109 0.05330078 53.11503906 0.06167969 54.1875 0.0703125 C55.75467773 0.07708008 55.75467773 0.07708008 57.35351562 0.08398438 C59.9440666 0.09581337 62.53450559 0.11229561 65.125 0.1328125 C65.1481211 13.02353505 65.16591389 25.9142527 65.17681217 38.80499172 C65.18204151 44.79000516 65.18914008 50.77500446 65.20043945 56.76000977 C65.21126653 62.53064679 65.21727645 68.30127018 65.21987724 74.07191658 C65.22173182 76.27884193 65.22535304 78.4857665 65.23073006 80.69268608 C65.2379381 83.77227291 65.23899104 86.85180264 65.23852539 89.93139648 C65.24212067 90.85352432 65.24571594 91.77565216 65.24942017 92.72572327 C65.23905216 99.01876034 65.23905216 99.01876034 64.125 100.1328125 C62.57544441 100.23180773 61.02146327 100.26360774 59.46875 100.265625 C58.05916016 100.26755859 58.05916016 100.26755859 56.62109375 100.26953125 C55.13802734 100.26373047 55.13802734 100.26373047 53.625 100.2578125 C52.63628906 100.26167969 51.64757813 100.26554688 50.62890625 100.26953125 C49.68917969 100.26824219 48.74945312 100.26695312 47.78125 100.265625 C46.91306641 100.26449707 46.04488281 100.26336914 45.15039062 100.26220703 C43.125 100.1328125 43.125 100.1328125 42.125 99.1328125 C42.05255947 97.11317051 42.04122812 95.09114126 42.0625 93.0703125 C42.07152344 91.96558594 42.08054687 90.86085938 42.08984375 89.72265625 C42.10144531 88.86800781 42.11304688 88.01335937 42.125 87.1328125 C40.145 87.1328125 38.165 87.1328125 36.125 87.1328125 C34.80270811 84.48822871 35.02822806 82.45519949 35.0625 79.5078125 C35.07152344 78.50492188 35.08054687 77.50203125 35.08984375 76.46875 C35.10144531 75.69789063 35.11304688 74.92703125 35.125 74.1328125 C34.320625 74.1534375 33.51625 74.1740625 32.6875 74.1953125 C30.125 74.1328125 30.125 74.1328125 29.125 73.1328125 C29.05294489 71.44672284 29.04113932 69.75780591 29.0625 68.0703125 C29.07152344 67.15121094 29.08054687 66.23210937 29.08984375 65.28515625 C29.10144531 64.57488281 29.11304688 63.86460937 29.125 63.1328125 C28.135 63.1328125 27.145 63.1328125 26.125 63.1328125 C26.125 60.1628125 26.125 57.1928125 26.125 54.1328125 C23.155 54.1328125 20.185 54.1328125 17.125 54.1328125 C17.13285522 56.16973267 17.13285522 56.16973267 17.14086914 58.24780273 C17.15891385 63.26651353 17.17043006 68.28522143 17.17993164 73.30395508 C17.18497308 75.47974123 17.19180607 77.65552397 17.20043945 79.83129883 C17.21251338 82.95134317 17.21823005 86.07134288 17.22265625 89.19140625 C17.22781754 90.17056503 17.23297882 91.14972382 17.23829651 92.15855408 C17.23840981 93.50984154 17.23840981 93.50984154 17.23852539 94.88842773 C17.240746 95.68562729 17.24296661 96.48282684 17.24525452 97.30418396 C17.125 99.1328125 17.125 99.1328125 16.125 100.1328125 C14.57544441 100.23180773 13.02146327 100.26360774 11.46875 100.265625 C10.05916016 100.26755859 10.05916016 100.26755859 8.62109375 100.26953125 C7.13802734 100.26373047 7.13802734 100.26373047 5.625 100.2578125 C4.63628906 100.26167969 3.64757813 100.26554688 2.62890625 100.26953125 C1.68917969 100.26824219 0.74945312 100.26695312 -0.21875 100.265625 C-1.08693359 100.26449707 -1.95511719 100.26336914 -2.84960938 100.26220703 C-4.875 100.1328125 -4.875 100.1328125 -5.875 99.1328125 C-5.97564199 96.09415489 -6.0111459 93.0781852 -6.00439453 90.0390625 C-6.00614685 89.08467285 -6.00789917 88.1302832 -6.00970459 87.14697266 C-6.01412487 83.97556773 -6.0111845 80.80421805 -6.0078125 77.6328125 C-6.00848549 75.43945302 -6.00945547 73.2460936 -6.01071167 71.05273438 C-6.01218888 66.44921155 -6.01003334 61.84570808 -6.00537109 57.2421875 C-5.9996738 51.32676655 -6.00295268 45.41139096 -6.00894356 39.49597168 C-6.01254854 34.96484024 -6.01141087 30.43371965 -6.00881577 25.90258789 C-6.00814632 23.72078445 -6.00897552 21.53898004 -6.01129532 19.35717773 C-6.01382082 16.3136126 -6.0099827 13.27012204 -6.00439453 10.2265625 C-6.00641876 9.31535645 -6.00844299 8.40415039 -6.01052856 7.46533203 C-5.9850227 0.0074177 -5.9850227 0.0074177 0 0 Z " fill="#040404" transform="translate(1279.875,785.8671875)"/>
<path d="M0 0 C0.9583374 0.00523682 1.9166748 0.01047363 2.90405273 0.01586914 C4.45576172 0.02070312 4.45576172 0.02070312 6.03881836 0.02563477 C7.12743164 0.03401367 8.21604492 0.04239258 9.33764648 0.05102539 C10.97636719 0.05779297 10.97636719 0.05779297 12.64819336 0.06469727 C15.3572008 0.07652699 18.06618028 0.09446308 20.77514648 0.11352539 C20.77514648 3.41352539 20.77514648 6.71352539 20.77514648 10.11352539 C21.74452148 10.09290039 22.71389648 10.07227539 23.71264648 10.05102539 C26.77514648 10.11352539 26.77514648 10.11352539 27.77514648 11.11352539 C28.00942426 13.12947121 28.18850773 15.15199939 28.33764648 17.17602539 C28.46333008 18.83311523 28.46333008 18.83311523 28.59155273 20.52368164 C28.65213867 21.37833008 28.71272461 22.23297852 28.77514648 23.11352539 C31.25014648 24.10352539 31.25014648 24.10352539 33.77514648 25.11352539 C33.77514648 27.75352539 33.77514648 30.39352539 33.77514648 33.11352539 C35.42514648 33.44352539 37.07514648 33.77352539 38.77514648 34.11352539 C39.27014648 39.06352539 39.27014648 39.06352539 39.77514648 44.11352539 C41.09514648 44.44352539 42.41514648 44.77352539 43.77514648 45.11352539 C43.77292587 44.56451065 43.77070526 44.01549591 43.76841736 43.44984436 C43.74636291 37.7564458 43.73123922 32.06305929 43.72021484 26.36962891 C43.7151735 24.24234525 43.70834057 22.11506508 43.69970703 19.98779297 C43.68763269 16.93724713 43.68191634 13.88674694 43.67749023 10.83618164 C43.67232895 9.87889664 43.66716766 8.92161163 43.66184998 7.93531799 C43.66177444 7.05448044 43.66169891 6.17364288 43.66162109 5.26611328 C43.65940048 4.48667862 43.65717987 3.70724396 43.65489197 2.90419006 C43.77514648 1.11352539 43.77514648 1.11352539 44.77514648 0.11352539 C46.4098753 0.02652197 48.04828703 0.00651477 49.68530273 0.01586914 C51.16933594 0.02070312 51.16933594 0.02070312 52.68334961 0.02563477 C53.72426758 0.03401367 54.76518555 0.04239258 55.83764648 0.05102539 C57.40482422 0.05779297 57.40482422 0.05779297 59.00366211 0.06469727 C61.59421308 0.07652627 64.18465207 0.0930085 66.77514648 0.11352539 C66.79826759 13.00424794 66.81606038 25.89496559 66.82695866 38.78570461 C66.832188 44.77071805 66.83928656 50.75571735 66.85058594 56.74072266 C66.86141301 62.51135968 66.86742293 68.28198307 66.87002373 74.05262947 C66.8718783 76.25955482 66.87549953 78.46647939 66.88087654 80.67339897 C66.88808459 83.7529858 66.88913753 86.83251553 66.88867188 89.91210938 C66.89226715 90.83423721 66.89586243 91.75636505 66.89956665 92.70643616 C66.88919865 98.99947323 66.88919865 98.99947323 65.77514648 100.11352539 C64.2255909 100.21252062 62.67160976 100.24432063 61.11889648 100.24633789 C59.70930664 100.24827148 59.70930664 100.24827148 58.27124023 100.25024414 C56.78817383 100.24444336 56.78817383 100.24444336 55.27514648 100.23852539 C54.28643555 100.24239258 53.29772461 100.24625977 52.27905273 100.25024414 C51.33932617 100.24895508 50.39959961 100.24766602 49.43139648 100.24633789 C48.56321289 100.24520996 47.6950293 100.24408203 46.80053711 100.24291992 C44.77514648 100.11352539 44.77514648 100.11352539 43.77514648 99.11352539 C43.70288147 97.26065038 43.69133429 95.40518661 43.71264648 93.55102539 C43.72166992 92.53911133 43.73069336 91.52719727 43.73999023 90.48461914 C43.7515918 89.7021582 43.76319336 88.91969727 43.77514648 88.11352539 C42.80577148 88.13415039 41.83639648 88.15477539 40.83764648 88.17602539 C37.77514648 88.11352539 37.77514648 88.11352539 36.77514648 87.11352539 C36.70255702 84.92713086 36.69140866 82.7385215 36.71264648 80.55102539 C36.72166992 79.35348633 36.73069336 78.15594727 36.73999023 76.92211914 C36.7515918 75.9952832 36.76319336 75.06844727 36.77514648 74.11352539 C35.45514648 73.78352539 34.13514648 73.45352539 32.77514648 73.11352539 C32.77514648 69.81352539 32.77514648 66.51352539 32.77514648 63.11352539 C31.45514648 62.78352539 30.13514648 62.45352539 28.77514648 62.11352539 C27.77514648 61.11352539 27.77514648 61.11352539 27.71264648 57.55102539 C27.73327148 56.41665039 27.75389648 55.28227539 27.77514648 54.11352539 C25.46514648 54.11352539 23.15514648 54.11352539 20.77514648 54.11352539 C20.7773671 54.67506821 20.77958771 55.23661102 20.78187561 55.81517029 C20.80392955 61.63832974 20.81905353 67.4614774 20.83007812 73.28466797 C20.83511956 75.46045412 20.84195256 77.63623686 20.85058594 79.81201172 C20.86265986 82.93205606 20.86837653 86.05205578 20.87280273 89.17211914 C20.87796402 90.15127792 20.88312531 91.13043671 20.88844299 92.13926697 C20.88855629 93.49055443 20.88855629 93.49055443 20.88867188 94.86914062 C20.89089249 95.66634018 20.8931131 96.46353973 20.895401 97.28489685 C20.77514648 99.11352539 20.77514648 99.11352539 19.77514648 100.11352539 C18.15257104 100.21269109 16.52574817 100.24432316 14.90014648 100.24633789 C13.91530273 100.24762695 12.93045898 100.24891602 11.91577148 100.25024414 C10.87936523 100.24637695 9.84295898 100.24250977 8.77514648 100.23852539 C7.22053711 100.24432617 7.22053711 100.24432617 5.63452148 100.25024414 C4.64967773 100.24895508 3.66483398 100.24766602 2.65014648 100.24633789 C1.74006836 100.24520996 0.82999023 100.24408203 -0.10766602 100.24291992 C-2.22485352 100.11352539 -2.22485352 100.11352539 -3.22485352 99.11352539 C-3.3254955 96.07486778 -3.36099941 93.05889809 -3.35424805 90.01977539 C-3.35600037 89.06538574 -3.35775269 88.11099609 -3.35955811 87.12768555 C-3.36397838 83.95628062 -3.36103801 80.78493094 -3.35766602 77.61352539 C-3.358339 75.42016591 -3.35930899 73.22680649 -3.36056519 71.03344727 C-3.3620424 66.42992444 -3.35988685 61.82642097 -3.35522461 57.22290039 C-3.34952731 51.30747944 -3.35280619 45.39210385 -3.35879707 39.47668457 C-3.36240206 34.94555313 -3.36126439 30.41443254 -3.35866928 25.88330078 C-3.35799984 23.70149734 -3.35882903 21.51969293 -3.36114883 19.33789062 C-3.36367433 16.2943255 -3.35983621 13.25083493 -3.35424805 10.20727539 C-3.35627228 9.29606934 -3.35829651 8.38486328 -3.36038208 7.44604492 C-3.33549888 0.17019719 -3.33549888 0.17019719 0 0 Z " fill="#040404" transform="translate(1193.224853515625,785.886474609375)"/>
<path d="M0 0 C1.02996094 -0.00128906 2.05992187 -0.00257813 3.12109375 -0.00390625 C4.74724609 0.00189453 4.74724609 0.00189453 6.40625 0.0078125 C7.49035156 0.00394531 8.57445312 0.00007812 9.69140625 -0.00390625 C10.72136719 -0.00261719 11.75132812 -0.00132812 12.8125 0 C14.24045898 0.00169189 14.24045898 0.00169189 15.69726562 0.00341797 C17.90625 0.1328125 17.90625 0.1328125 18.90625 1.1328125 C18.99483646 3.87175335 19.02148479 6.5853452 19.00390625 9.32421875 C19.0024913 10.14405746 19.00107635 10.96389618 18.99961853 11.80857849 C18.99400289 14.43752632 18.98144779 17.06639023 18.96875 19.6953125 C18.96373701 21.47330607 18.95917376 23.25130096 18.95507812 25.02929688 C18.94402839 29.39716795 18.92675331 33.76497598 18.90625 38.1328125 C20.55625 38.1328125 22.20625 38.1328125 23.90625 38.1328125 C23.87144531 37.37355469 23.83664062 36.61429688 23.80078125 35.83203125 C23.77371094 34.83816406 23.74664062 33.84429688 23.71875 32.8203125 C23.68394531 31.83417969 23.64914062 30.84804688 23.61328125 29.83203125 C23.90625 27.1328125 23.90625 27.1328125 25.21875 25.2890625 C27.7359333 23.5643258 29.94117731 23.93514099 32.90625 24.1328125 C32.89464844 23.35035156 32.88304687 22.56789063 32.87109375 21.76171875 C32.86207031 20.74980469 32.85304688 19.73789062 32.84375 18.6953125 C32.83214844 17.68597656 32.82054687 16.67664063 32.80859375 15.63671875 C32.90625 13.1328125 32.90625 13.1328125 33.90625 12.1328125 C36.23922433 12.09188313 38.57330225 12.09039527 40.90625 12.1328125 C40.89464844 11.35035156 40.88304687 10.56789063 40.87109375 9.76171875 C40.86207031 8.74980469 40.85304688 7.73789062 40.84375 6.6953125 C40.83214844 5.68597656 40.82054687 4.67664063 40.80859375 3.63671875 C40.90625 1.1328125 40.90625 1.1328125 41.90625 0.1328125 C43.45580559 0.03381727 45.00978673 0.00201726 46.5625 0 C47.50222656 -0.00128906 48.44195313 -0.00257813 49.41015625 -0.00390625 C50.39886719 -0.00003906 51.38757813 0.00382813 52.40625 0.0078125 C53.88931641 0.00201172 53.88931641 0.00201172 55.40234375 -0.00390625 C56.81193359 -0.00197266 56.81193359 -0.00197266 58.25 0 C59.11818359 0.00112793 59.98636719 0.00225586 60.88085938 0.00341797 C62.90625 0.1328125 62.90625 0.1328125 63.90625 1.1328125 C64.05942991 3.79284061 64.13784875 6.4090313 64.15625 9.0703125 C64.176875 9.81216797 64.1975 10.55402344 64.21875 11.31835938 C64.234375 13.47265625 64.234375 13.47265625 63.90625 17.1328125 C60.90625 19.1328125 60.90625 19.1328125 54.90625 19.1328125 C54.90625 25.4028125 54.90625 31.6728125 54.90625 38.1328125 C49.95625 38.6278125 49.95625 38.6278125 44.90625 39.1328125 C44.57625 44.7428125 44.24625 50.3528125 43.90625 56.1328125 C45.55625 56.1328125 47.20625 56.1328125 48.90625 56.1328125 C51.67667109 58.90323359 51.30421106 60.89815055 51.53125 64.7578125 C51.60601563 65.94632813 51.68078125 67.13484375 51.7578125 68.359375 C51.80679688 69.27460937 51.85578125 70.18984375 51.90625 71.1328125 C54.87625 72.1228125 54.87625 72.1228125 57.90625 73.1328125 C57.90625 76.4328125 57.90625 79.7328125 57.90625 83.1328125 C59.55625 83.1328125 61.20625 83.1328125 62.90625 83.1328125 C64.66184942 84.88841192 64.03846919 87.16863692 64.04296875 89.50390625 C64.03910156 90.20644531 64.03523437 90.90898438 64.03125 91.6328125 C64.03511719 92.33535156 64.03898438 93.03789063 64.04296875 93.76171875 C64.03286378 99.00619872 64.03286378 99.00619872 62.90625 100.1328125 C61.27152118 100.21981592 59.63310945 100.23982313 57.99609375 100.23046875 C57.00673828 100.22724609 56.01738281 100.22402344 54.99804688 100.22070312 C53.95712891 100.21232422 52.91621094 100.20394531 51.84375 100.1953125 C50.79896484 100.19080078 49.75417969 100.18628906 48.67773438 100.18164062 C46.0871834 100.16981163 43.49674441 100.15332939 40.90625 100.1328125 C39.58395811 97.48822871 39.80947806 95.45519949 39.84375 92.5078125 C39.85277344 91.50492188 39.86179687 90.50203125 39.87109375 89.46875 C39.88269531 88.69789063 39.89429688 87.92703125 39.90625 87.1328125 C38.9575 87.1946875 38.00875 87.2565625 37.03125 87.3203125 C36 87.2584375 34.96875 87.1965625 33.90625 87.1328125 C31.69711 83.8191025 31.68143447 82.7882104 31.78125 78.9453125 C31.79929687 78.04425781 31.81734375 77.14320313 31.8359375 76.21484375 C31.85914063 75.52777344 31.88234375 74.84070313 31.90625 74.1328125 C31.1225 74.1740625 30.33875 74.2153125 29.53125 74.2578125 C26.90625 74.1328125 26.90625 74.1328125 24.90625 72.1328125 C24.7109375 69.96875 24.7109375 69.96875 24.78125 67.5078125 C24.79929687 66.69054687 24.81734375 65.87328125 24.8359375 65.03125 C24.85914063 64.40476562 24.88234375 63.77828125 24.90625 63.1328125 C22.92625 63.1328125 20.94625 63.1328125 18.90625 63.1328125 C18.91672363 64.18259277 18.92719727 65.23237305 18.93798828 66.31396484 C18.97413453 70.20146283 18.99713078 74.08894591 19.01611328 77.9765625 C19.02618317 79.66050716 19.03983988 81.34443429 19.05712891 83.02832031 C19.08133426 85.44600751 19.09272296 87.86346393 19.1015625 90.28125 C19.11188507 91.0365097 19.12220764 91.79176941 19.13284302 92.56991577 C19.13324318 94.4257523 19.02847716 96.2810053 18.90625 98.1328125 C16.90625 100.1328125 16.90625 100.1328125 14.67553711 100.37573242 C13.31827515 100.36956909 13.31827515 100.36956909 11.93359375 100.36328125 C10.95197266 100.36134766 9.97035156 100.35941406 8.95898438 100.35742188 C7.93095703 100.34517578 6.90292969 100.33292969 5.84375 100.3203125 C4.81185547 100.31966797 3.77996094 100.31902344 2.71679688 100.31835938 C-4.95359003 100.27297247 -4.95359003 100.27297247 -6.09375 99.1328125 C-6.19439199 96.09415489 -6.2298959 93.0781852 -6.22314453 90.0390625 C-6.22489685 89.08467285 -6.22664917 88.1302832 -6.22845459 87.14697266 C-6.23287487 83.97556773 -6.2299345 80.80421805 -6.2265625 77.6328125 C-6.22723549 75.43945302 -6.22820547 73.2460936 -6.22946167 71.05273438 C-6.23093888 66.44921155 -6.22878334 61.84570808 -6.22412109 57.2421875 C-6.2184238 51.32676655 -6.22170268 45.41139096 -6.22769356 39.49597168 C-6.23129854 34.96484024 -6.23016087 30.43371965 -6.22756577 25.90258789 C-6.22689632 23.72078445 -6.22772552 21.53898004 -6.23004532 19.35717773 C-6.23257082 16.3136126 -6.2287327 13.27012204 -6.22314453 10.2265625 C-6.22516876 9.31535645 -6.22719299 8.40415039 -6.22927856 7.46533203 C-6.20377247 0.00735044 -6.20377247 0.00735044 0 0 Z " fill="#050505" transform="translate(485.09375,785.8671875)"/>
<path d="M0 0 C1.35726196 0.00616333 1.35726196 0.00616333 2.74194336 0.01245117 C3.72356445 0.01438477 4.70518555 0.01631836 5.71655273 0.01831055 C6.74458008 0.03055664 7.77260742 0.04280273 8.83178711 0.05541992 C9.86368164 0.05606445 10.89557617 0.05670898 11.95874023 0.05737305 C19.62912714 0.10275995 19.62912714 0.10275995 20.76928711 1.24291992 C20.85783872 3.90918023 20.88453384 6.54939107 20.86694336 9.21557617 C20.86552841 10.01321884 20.86411346 10.81086151 20.86265564 11.63267517 C20.85704027 14.19029428 20.84448523 16.7478271 20.83178711 19.30541992 C20.82677409 21.03523637 20.82221084 22.76505418 20.81811523 24.49487305 C20.80706586 28.74425545 20.78979097 32.99357304 20.76928711 37.24291992 C22.08928711 37.24291992 23.40928711 37.24291992 24.76928711 37.24291992 C24.74608398 36.47206055 24.72288086 35.70120117 24.69897461 34.90698242 C24.68092773 33.9040918 24.66288086 32.90120117 24.64428711 31.86791992 C24.62108398 30.87018555 24.59788086 29.87245117 24.57397461 28.84448242 C24.76928711 26.24291992 24.76928711 26.24291992 26.76928711 24.24291992 C29.89428711 24.11791992 29.89428711 24.11791992 32.76928711 24.24291992 C32.74608398 23.54424805 32.72288086 22.84557617 32.69897461 22.12573242 C32.68092773 21.2156543 32.66288086 20.30557617 32.64428711 19.36791992 C32.62108398 18.46299805 32.59788086 17.55807617 32.57397461 16.62573242 C32.76928711 14.24291992 32.76928711 14.24291992 34.76928711 12.24291992 C37.89428711 12.11791992 37.89428711 12.11791992 40.76928711 12.24291992 C40.75768555 11.46045898 40.74608398 10.67799805 40.73413086 9.87182617 C40.72510742 8.85991211 40.71608398 7.84799805 40.70678711 6.80541992 C40.69518555 5.79608398 40.68358398 4.78674805 40.67163086 3.74682617 C40.76928711 1.24291992 40.76928711 1.24291992 41.76928711 0.24291992 C43.39186255 0.14375422 45.01868542 0.11212215 46.64428711 0.11010742 C47.62913086 0.10881836 48.61397461 0.1075293 49.62866211 0.10620117 C50.66506836 0.11006836 51.70147461 0.11393555 52.76928711 0.11791992 C54.32389648 0.11211914 54.32389648 0.11211914 55.90991211 0.10620117 C56.89475586 0.10749023 57.87959961 0.1087793 58.89428711 0.11010742 C59.80436523 0.11123535 60.71444336 0.11236328 61.65209961 0.11352539 C63.76928711 0.24291992 63.76928711 0.24291992 64.76928711 1.24291992 C64.84248332 3.93946846 64.86171248 6.6098345 64.83178711 9.30541992 C64.82727539 10.0640332 64.82276367 10.82264648 64.81811523 11.60424805 C64.80629391 13.48383863 64.78835789 15.36338891 64.76928711 17.24291992 C61.81264192 18.72124252 59.02698974 18.30324775 55.76928711 18.24291992 C55.77452393 18.81324951 55.77976074 19.3835791 55.78515625 19.97119141 C55.80586932 22.54092315 55.81892901 25.11063739 55.83178711 27.68041992 C55.84016602 28.57825195 55.84854492 29.47608398 55.85717773 30.40112305 C55.86040039 31.25512695 55.86362305 32.10913086 55.86694336 32.98901367 C55.87218018 33.77977295 55.87741699 34.57053223 55.8828125 35.38525391 C55.76928711 37.24291992 55.76928711 37.24291992 54.76928711 38.24291992 C51.4331048 38.38549182 48.10953105 38.28520149 44.76928711 38.24291992 C44.76928711 44.18291992 44.76928711 50.12291992 44.76928711 56.24291992 C46.41928711 56.24291992 48.06928711 56.24291992 49.76928711 56.24291992 C52.5397082 59.01334101 52.16724817 61.00825798 52.39428711 64.86791992 C52.46905273 66.05643555 52.54381836 67.24495117 52.62084961 68.46948242 C52.66983398 69.3847168 52.71881836 70.29995117 52.76928711 71.24291992 C55.73928711 72.23291992 55.73928711 72.23291992 58.76928711 73.24291992 C58.76928711 76.54291992 58.76928711 79.84291992 58.76928711 83.24291992 C60.41928711 83.24291992 62.06928711 83.24291992 63.76928711 83.24291992 C65.76928711 85.24291992 65.76928711 85.24291992 65.99975586 88.46557617 C65.98557617 89.73272461 65.97139648 90.99987305 65.95678711 92.30541992 C65.9503418 93.57514648 65.94389648 94.84487305 65.93725586 96.15307617 C65.76928711 99.24291992 65.76928711 99.24291992 64.76928711 100.24291992 C60.96340566 100.49500714 57.14503255 100.42814336 53.33178711 100.43041992 C52.25606445 100.44266602 51.1803418 100.45491211 50.07202148 100.4675293 C49.0452832 100.46946289 48.01854492 100.47139648 46.96069336 100.47338867 C45.5405896 100.479552 45.5405896 100.479552 44.09179688 100.48583984 C41.76928711 100.24291992 41.76928711 100.24291992 39.76928711 98.24291992 C39.57397461 95.64135742 39.57397461 95.64135742 39.64428711 92.61791992 C39.66233398 91.6150293 39.68038086 90.61213867 39.69897461 89.57885742 C39.72217773 88.80799805 39.74538086 88.03713867 39.76928711 87.24291992 C38.79991211 87.26354492 37.83053711 87.28416992 36.83178711 87.30541992 C33.76928711 87.24291992 33.76928711 87.24291992 32.76928711 86.24291992 C32.69669765 84.05652539 32.68554928 81.86791603 32.70678711 79.68041992 C32.71581055 78.48288086 32.72483398 77.2853418 32.73413086 76.05151367 C32.74573242 75.12467773 32.75733398 74.1978418 32.76928711 73.24291992 C31.79991211 73.26354492 30.83053711 73.28416992 29.83178711 73.30541992 C26.76928711 73.24291992 26.76928711 73.24291992 25.76928711 72.24291992 C25.69748747 70.72363954 25.68536704 69.2012451 25.70678711 67.68041992 C25.71581055 66.85413086 25.72483398 66.0278418 25.73413086 65.17651367 C25.74573242 64.53842773 25.75733398 63.9003418 25.76928711 63.24291992 C23.78928711 63.24291992 21.80928711 63.24291992 19.76928711 63.24291992 C19.77714233 64.87088501 19.77714233 64.87088501 19.78515625 66.53173828 C19.80320547 70.54409974 19.81471882 74.55645759 19.82421875 78.56884766 C19.82925915 80.3081116 19.83609141 82.04737128 19.84472656 83.78662109 C19.85680503 86.28117929 19.86251819 88.77568166 19.86694336 91.27026367 C19.87210464 92.05255844 19.87726593 92.83485321 19.88258362 93.64085388 C19.88277937 95.50859107 19.83128405 97.37621196 19.76928711 99.24291992 C18.11534594 100.89686109 16.16613297 100.37291675 13.89428711 100.37573242 C12.90944336 100.37702148 11.92459961 100.37831055 10.90991211 100.37963867 C9.87350586 100.37577148 8.83709961 100.3719043 7.76928711 100.36791992 C6.21467773 100.3737207 6.21467773 100.3737207 4.62866211 100.37963867 C3.64381836 100.37834961 2.65897461 100.37706055 1.64428711 100.37573242 C0.73420898 100.37460449 -0.17586914 100.37347656 -1.11352539 100.37231445 C-3.23071289 100.24291992 -3.23071289 100.24291992 -4.23071289 99.24291992 C-4.33667156 96.24015299 -4.37748843 93.26026096 -4.37597656 90.25683594 C-4.37933517 89.31380615 -4.38269379 88.37077637 -4.38615417 87.39916992 C-4.39569514 84.26504214 -4.39760885 81.1309676 -4.39868164 77.99682617 C-4.40189199 75.82828244 -4.40525589 73.65973894 -4.4087677 71.49119568 C-4.41476682 66.93894956 -4.41660679 62.38672245 -4.41601562 57.83447266 C-4.41591395 51.98861809 -4.42956849 46.14288484 -4.44678783 40.29705906 C-4.45788217 35.81649715 -4.45993563 31.3359648 -4.4594059 26.85539055 C-4.46058981 24.69952921 -4.46503441 22.54366719 -4.47273827 20.38781929 C-4.4824867 17.37792481 -4.47968059 14.36829679 -4.47363281 11.35839844 C-4.47925232 10.4601384 -4.48487183 9.56187836 -4.49066162 8.63639832 C-4.44883394 0.48446862 -4.44883394 0.48446862 0 0 Z " fill="#050605" transform="translate(144.230712890625,785.757080078125)"/>
<path d="M0 0 C0.85428589 -0.00630432 1.70857178 -0.01260864 2.58874512 -0.019104 C3.51272095 -0.01505554 4.43669678 -0.01100708 5.38867188 -0.00683594 C6.80895691 -0.00970612 6.80895691 -0.00970612 8.25793457 -0.01263428 C10.26196559 -0.01399667 12.26600542 -0.0102965 14.27001953 -0.00195312 C17.34492741 0.00874559 20.41925101 -0.00184666 23.49414062 -0.01464844 C25.43815234 -0.01332685 27.38216368 -0.01076448 29.32617188 -0.00683594 C30.71213562 -0.01290863 30.71213562 -0.01290863 32.12609863 -0.019104 C33.40752747 -0.00964752 33.40752747 -0.00964752 34.71484375 0 C35.4682605 0.00159119 36.22167725 0.00318237 36.9979248 0.00482178 C38.85742188 0.25878906 38.85742188 0.25878906 40.85742188 2.25878906 C41.12734094 4.94718291 40.94479544 7.55020843 40.85742188 10.25878906 C42.77554688 10.19691406 42.77554688 10.19691406 44.73242188 10.13378906 C46.91210938 10.06347656 46.91210938 10.06347656 48.85742188 10.25878906 C50.85742188 12.25878906 50.85742188 12.25878906 51.1003418 15.22387695 C51.09623291 16.46387451 51.09212402 17.70387207 51.08789062 18.98144531 C51.0874324 19.64212509 51.08697418 20.30280487 51.08650208 20.98350525 C51.08348109 22.37972816 51.07559929 23.77594773 51.06323242 25.17211914 C51.04496384 27.31636405 51.04272281 29.46017755 51.04296875 31.60449219 C51.00485399 42.11135695 51.00485399 42.11135695 49.85742188 43.25878906 C48.29569443 43.34564509 46.73012843 43.36581126 45.16601562 43.35644531 C44.22177734 43.35322266 43.27753906 43.35 42.3046875 43.34667969 C41.31146484 43.33830078 40.31824219 43.32992187 39.29492188 43.32128906 C38.29783203 43.31677734 37.30074219 43.31226563 36.2734375 43.30761719 C33.80137339 43.29578913 31.3294267 43.27930755 28.85742188 43.25878906 C27.57880573 40.70155677 27.74405578 38.89141804 27.75976562 36.03222656 C27.76298828 35.00097656 27.76621094 33.96972656 27.76953125 32.90722656 C27.78209961 31.286875 27.78209961 31.286875 27.79492188 29.63378906 C27.79943359 28.54582031 27.80394531 27.45785156 27.80859375 26.33691406 C27.82040398 23.64418244 27.83833982 20.95147897 27.85742188 18.25878906 C21.25742187 18.25878906 14.65742188 18.25878906 7.85742188 18.25878906 C7.85742188 39.37878906 7.85742188 60.49878906 7.85742188 82.25878906 C14.45742188 82.25878906 21.05742187 82.25878906 27.85742188 82.25878906 C27.85742188 79.61878906 27.85742188 76.97878906 27.85742188 74.25878906 C27.0865625 74.28199219 26.31570313 74.30519531 25.52148438 74.32910156 C24.01714844 74.35617187 24.01714844 74.35617187 22.48242188 74.38378906 C21.4846875 74.40699219 20.48695313 74.43019531 19.45898438 74.45410156 C16.85742188 74.25878906 16.85742188 74.25878906 14.85742188 72.25878906 C14.65885216 69.38536845 14.57913242 66.63016918 14.60742188 63.75878906 C14.5996875 62.97375 14.59195312 62.18871094 14.58398438 61.37988281 C14.604114 55.51209694 14.604114 55.51209694 16.85742188 53.25878906 C19.3548605 53.07157054 21.7393087 53.0029914 24.23632812 53.02832031 C25.32723 53.02900764 25.32723 53.02900764 26.44017029 53.02970886 C27.97762687 53.0327307 29.5150804 53.04061501 31.05249023 53.05297852 C33.41400923 53.07124333 35.77513648 53.07348816 38.13671875 53.07324219 C39.62825862 53.07815703 41.11979582 53.0839852 42.61132812 53.09082031 C43.32172745 53.09193314 44.03212677 53.09304596 44.76405334 53.0941925 C49.74136823 53.14273541 49.74136823 53.14273541 50.85742188 54.25878906 C50.97064621 56.68369277 51.02159063 59.07905768 51.02539062 61.50488281 C51.03038322 62.59434959 51.03038322 62.59434959 51.03547668 63.70582581 C51.04054862 65.24503952 51.04288493 66.78426427 51.04272461 68.32348633 C51.04490954 70.68296377 51.06305753 73.04197267 51.08203125 75.40136719 C51.08496539 76.89420412 51.08695005 78.38704329 51.08789062 79.87988281 C51.09507614 80.5882579 51.10226166 81.296633 51.10966492 82.026474 C51.08624525 87.02996569 51.08624525 87.02996569 48.85742188 89.25878906 C46.16902803 89.52870812 43.56600251 89.34616263 40.85742188 89.25878906 C40.880625 89.88527344 40.90382813 90.51175781 40.92773438 91.15722656 C40.94578125 91.97449219 40.96382813 92.79175781 40.98242188 93.63378906 C41.005625 94.44589844 41.02882813 95.25800781 41.05273438 96.09472656 C40.85742188 98.25878906 40.85742188 98.25878906 38.85742188 100.25878906 C36.95323181 100.50602722 36.95323181 100.50602722 34.60717773 100.50170898 C33.29087624 100.50632393 33.29087624 100.50632393 31.94798279 100.5110321 C30.52450279 100.50025383 30.52450279 100.50025383 29.07226562 100.48925781 C28.10084122 100.48879959 27.12941681 100.48834137 26.1285553 100.48786926 C24.07323995 100.4848453 22.01792692 100.47695472 19.96264648 100.46459961 C16.80444283 100.4463441 13.64653215 100.44408987 10.48828125 100.44433594 C8.49544016 100.43942088 6.50260106 100.43359261 4.50976562 100.42675781 C3.55875473 100.42564499 2.60774384 100.42453217 1.62791443 100.42338562 C0.75353226 100.41700577 -0.12084991 100.41062592 -1.02172852 100.40405273 C-2.18183189 100.39833504 -2.18183189 100.39833504 -3.3653717 100.39250183 C-5.14257812 100.25878906 -5.14257812 100.25878906 -6.14257812 99.25878906 C-6.21463324 97.5726994 -6.2264388 95.88378247 -6.20507812 94.19628906 C-6.19605469 93.2771875 -6.18703125 92.35808594 -6.17773438 91.41113281 C-6.16613281 90.70085937 -6.15453125 89.99058594 -6.14257812 89.25878906 C-7.42132813 89.30003906 -8.70007813 89.34128906 -10.01757812 89.38378906 C-12.19726562 89.45410156 -12.19726562 89.45410156 -14.14257812 89.25878906 C-16.5642479 86.83711929 -16.38409441 85.57737015 -16.41363525 82.27256775 C-16.40958679 81.581595 -16.40553833 80.89062225 -16.40136719 80.17871094 C-16.40487183 79.45011368 -16.40837646 78.72151642 -16.4119873 77.97084045 C-16.4208082 75.55631046 -16.41495432 73.14207217 -16.40820312 70.72753906 C-16.40954968 69.05366967 -16.41149012 67.37980066 -16.41400146 65.70593262 C-16.41695321 62.19535606 -16.4126535 58.68488117 -16.40332031 55.17431641 C-16.39192571 50.66805682 -16.39848492 46.16203545 -16.41046524 41.65578461 C-16.41768251 38.19861039 -16.41539654 34.74149291 -16.41020966 31.28431702 C-16.40887279 29.62248202 -16.41052218 27.96064191 -16.41516876 26.29881287 C-16.42023186 23.97869159 -16.4125271 21.65895939 -16.40136719 19.33886719 C-16.40541565 18.64789444 -16.40946411 17.95692169 -16.41363525 17.24501038 C-16.37110738 12.48731832 -16.37110738 12.48731832 -14.14257812 10.25878906 C-11.45418428 9.98887 -8.85115876 10.17141549 -6.14257812 10.25878906 C-6.18382812 8.98003906 -6.22507812 7.70128906 -6.26757812 6.38378906 C-6.33789062 4.20410156 -6.33789062 4.20410156 -6.14257812 2.25878906 C-3.75410985 -0.12967921 -3.25037237 0.00686466 0 0 Z " fill="#050505" transform="translate(412.142578125,785.7412109375)"/>
<path d="M0 0 C1.34160439 -0.00956978 1.34160439 -0.00956978 2.71031189 -0.01933289 C3.68319656 -0.02044571 4.65608124 -0.02155853 5.65844727 -0.02270508 C6.65111099 -0.02603348 7.64377472 -0.02936188 8.66651917 -0.03279114 C10.77067602 -0.03786473 12.87484094 -0.04019933 14.97900391 -0.04003906 C18.20757234 -0.04222463 21.43579878 -0.06037332 24.66430664 -0.0793457 C26.70401901 -0.08227965 28.74373301 -0.08426444 30.78344727 -0.08520508 C32.23973793 -0.09598335 32.23973793 -0.09598335 33.72544861 -0.10697937 C34.62300369 -0.10390274 35.52055878 -0.10082611 36.4453125 -0.09765625 C37.23727524 -0.09908127 38.02923798 -0.10050629 38.84519958 -0.10197449 C40.78735352 0.14526367 40.78735352 0.14526367 42.78735352 2.14526367 C43.05727258 4.83365752 42.87472708 7.43668304 42.78735352 10.14526367 C44.70547852 10.08338867 44.70547852 10.08338867 46.66235352 10.02026367 C48.84204102 9.94995117 48.84204102 9.94995117 50.78735352 10.14526367 C52.78735352 12.14526367 52.78735352 12.14526367 53.03027344 15.11035156 C53.02616455 16.35034912 53.02205566 17.59034668 53.01782227 18.86791992 C53.01736404 19.5285997 53.01690582 20.18927948 53.01643372 20.86997986 C53.01341273 22.26620277 53.00553093 23.66242234 52.99316406 25.05859375 C52.97489548 27.20283866 52.97265445 29.34665216 52.97290039 31.4909668 C52.93478563 41.99783155 52.93478563 41.99783155 51.78735352 43.14526367 C50.23779793 43.24425891 48.68381679 43.27605891 47.13110352 43.27807617 C45.72151367 43.28000977 45.72151367 43.28000977 44.28344727 43.28198242 C43.29473633 43.27811523 42.30602539 43.27424805 41.28735352 43.27026367 C40.29864258 43.27413086 39.30993164 43.27799805 38.29125977 43.28198242 C37.3515332 43.28069336 36.41180664 43.2794043 35.44360352 43.27807617 C34.57541992 43.27694824 33.70723633 43.27582031 32.81274414 43.2746582 C30.78735352 43.14526367 30.78735352 43.14526367 29.78735352 42.14526367 C29.70009129 40.36455121 29.6803631 38.58043227 29.68969727 36.79760742 C29.69291992 35.71801758 29.69614258 34.63842773 29.69946289 33.52612305 C29.71203125 31.82166016 29.71203125 31.82166016 29.72485352 30.08276367 C29.72936523 28.94258789 29.73387695 27.80241211 29.73852539 26.62768555 C29.75035592 23.80018949 29.76829201 20.97272022 29.78735352 18.14526367 C22.85735352 18.14526367 15.92735352 18.14526367 8.78735352 18.14526367 C8.78735352 39.26526367 8.78735352 60.38526367 8.78735352 82.14526367 C15.71735352 82.14526367 22.64735352 82.14526367 29.78735352 82.14526367 C29.78735352 79.50526367 29.78735352 76.86526367 29.78735352 74.14526367 C29.01649414 74.1684668 28.24563477 74.19166992 27.45141602 74.21557617 C25.94708008 74.24264648 25.94708008 74.24264648 24.41235352 74.27026367 C23.41461914 74.2934668 22.41688477 74.31666992 21.38891602 74.34057617 C18.78735352 74.14526367 18.78735352 74.14526367 16.78735352 72.14526367 C16.5887838 69.27184306 16.50906406 66.51664379 16.53735352 63.64526367 C16.52961914 62.86022461 16.52188477 62.07518555 16.51391602 61.26635742 C16.53404564 55.39857155 16.53404564 55.39857155 18.78735352 53.14526367 C21.92016602 52.88647461 21.92016602 52.88647461 25.91235352 52.87963867 C26.61505371 52.87772522 27.31775391 52.87581177 28.04174805 52.87384033 C29.52791705 52.87247892 31.01409796 52.87617235 32.50024414 52.88452148 C34.77850997 52.89522214 37.05598729 52.88462528 39.33422852 52.87182617 C40.77693859 52.87314778 42.21964818 52.87571019 43.66235352 52.87963867 C44.97977539 52.88189453 46.29719727 52.88415039 47.65454102 52.88647461 C50.78735352 53.14526367 50.78735352 53.14526367 52.78735352 55.14526367 C53.04614258 58.27807617 53.04614258 58.27807617 53.05297852 62.27026367 C53.05489197 62.97296387 53.05680542 63.67566406 53.05877686 64.3996582 C53.06013827 65.88582721 53.05644484 67.37200812 53.0480957 68.8581543 C53.03739505 71.13642013 53.04799191 73.41389744 53.06079102 75.69213867 C53.05946941 77.13484875 53.056907 78.57755834 53.05297852 80.02026367 C53.05072266 81.33768555 53.0484668 82.65510742 53.04614258 84.01245117 C52.78735352 87.14526367 52.78735352 87.14526367 50.78735352 89.14526367 C48.09895967 89.41518273 45.49593415 89.23263724 42.78735352 89.14526367 C42.84922852 90.40338867 42.91110352 91.66151367 42.97485352 92.95776367 C43.10167702 95.53650827 43.14282321 96.68984614 41.53504944 98.74967957 C39.36517721 100.48238327 38.28243669 100.51988334 35.53125 100.51757812 C34.24993446 100.52692131 34.24993446 100.52692131 32.94273376 100.53645325 C31.56451195 100.52263863 31.56451195 100.52263863 30.15844727 100.50854492 C29.21300552 100.50904343 28.26756378 100.50954193 27.29347229 100.51005554 C25.29539894 100.50771529 23.29732263 100.49798962 21.29931641 100.48144531 C18.23321319 100.45782806 15.16797782 100.46088777 12.10180664 100.4675293 C10.16234831 100.46195347 8.22289365 100.45484418 6.28344727 100.44604492 C4.9021891 100.44741203 4.9021891 100.44741203 3.49302673 100.44880676 C2.64196854 100.43927475 1.79091034 100.42974274 0.9140625 100.41992188 C0.16366196 100.41531448 -0.58673859 100.41070709 -1.35987854 100.40596008 C-3.21264648 100.14526367 -3.21264648 100.14526367 -5.21264648 98.14526367 C-5.40795898 95.98120117 -5.40795898 95.98120117 -5.33764648 93.52026367 C-5.31959961 92.70299805 -5.30155273 91.88573242 -5.28295898 91.04370117 C-5.25975586 90.4172168 -5.23655273 89.79073242 -5.21264648 89.14526367 C-6.32639648 89.18651367 -7.44014648 89.22776367 -8.58764648 89.27026367 C-12.21264648 89.14526367 -12.21264648 89.14526367 -14.21264648 87.14526367 C-14.40557072 84.71142737 -14.4750567 82.39192012 -14.45556641 79.95751953 C-14.45746475 79.21756241 -14.4593631 78.47760529 -14.46131897 77.71522522 C-14.4650311 75.26341235 -14.45431738 72.81189407 -14.44311523 70.36010742 C-14.44192367 68.66142308 -14.44147022 66.96273808 -14.44172668 65.26405334 C-14.44016112 61.7021981 -14.43186524 58.14044327 -14.41845703 54.57861328 C-14.40145417 50.0028078 -14.39764301 45.42711263 -14.39840221 40.85127926 C-14.39813089 37.34354084 -14.39265603 33.83582674 -14.38540077 30.32809639 C-14.38220893 28.64031725 -14.3802455 26.95253534 -14.37950706 25.26475334 C-14.37734967 22.91099174 -14.36861895 20.55734945 -14.35791016 18.20361328 C-14.35836334 17.49969452 -14.35881653 16.79577576 -14.35928345 16.07052612 C-14.32712167 11.25973885 -14.32712167 11.25973885 -13.21264648 10.14526367 C-10.54205797 10.00411206 -7.88832411 10.1027926 -5.21264648 10.14526367 C-5.22424805 9.50717773 -5.23584961 8.8690918 -5.24780273 8.21166992 C-5.25682617 7.38538086 -5.26584961 6.5590918 -5.27514648 5.70776367 C-5.28674805 4.88405273 -5.29834961 4.0603418 -5.31030273 3.21166992 C-5.13236203 -0.55355549 -3.29745023 0.01588693 0 0 Z " fill="#060606" transform="translate(757.212646484375,785.854736328125)"/>
<path d="M0 0 C0.98484375 -0.00128906 1.9696875 -0.00257813 2.984375 -0.00390625 C4.02078125 -0.00003906 5.0571875 0.00382813 6.125 0.0078125 C7.67960937 0.00201172 7.67960937 0.00201172 9.265625 -0.00390625 C10.25046875 -0.00261719 11.2353125 -0.00132812 12.25 0 C13.16007812 0.00112793 14.07015625 0.00225586 15.0078125 0.00341797 C17.125 0.1328125 17.125 0.1328125 18.125 1.1328125 C18.22002416 3.62773638 18.25057566 6.09487264 18.23852539 8.59008789 C18.23867142 9.37051956 18.23881744 10.15095123 18.2389679 10.95503235 C18.23826858 13.5468723 18.23047536 16.13864128 18.22265625 18.73046875 C18.22079213 20.5226589 18.2193682 22.31484956 18.21836853 24.10704041 C18.21454284 28.83352047 18.20471212 33.55997002 18.19366455 38.28643799 C18.18345153 43.105668 18.17887115 47.92490292 18.17382812 52.74414062 C18.16308989 62.20704685 18.14549268 71.66992237 18.125 81.1328125 C25.385 81.1328125 32.645 81.1328125 40.125 81.1328125 C40.10928955 77.55880615 40.10928955 77.55880615 40.09326172 73.91259766 C40.06017053 66.0535745 40.03804978 58.19454831 40.02137566 50.33547401 C40.01092388 45.56898956 39.99673936 40.80257629 39.97412109 36.03613281 C39.95244227 31.43906323 39.94044188 26.84206226 39.93524551 22.24494553 C39.93154081 20.48820286 39.92430678 18.73146409 39.91353989 16.97475052 C39.89909076 14.52035562 39.89701927 12.06624677 39.89794922 9.61181641 C39.89075867 8.88029861 39.88356812 8.14878082 39.87615967 7.39509583 C39.89689568 2.36091682 39.89689568 2.36091682 42.125 0.1328125 C44.26391602 -0.11010742 44.26391602 -0.11010742 46.87890625 -0.09765625 C47.81541016 -0.09572266 48.75191406 -0.09378906 49.71679688 -0.09179688 C50.69712891 -0.07955078 51.67746094 -0.06730469 52.6875 -0.0546875 C53.67169922 -0.05404297 54.65589844 -0.05339844 55.66992188 -0.05273438 C62.98482468 -0.00736282 62.98482468 -0.00736282 64.125 1.1328125 C64.2307525 3.76943231 64.27178029 6.37999371 64.27026367 9.01733398 C64.27362228 9.84332092 64.2769809 10.66930786 64.28044128 11.52032471 C64.2899805 14.26486697 64.29189587 17.00934842 64.29296875 19.75390625 C64.29617925 21.65340704 64.29954316 23.55290758 64.30305481 25.45240784 C64.30905351 29.43971327 64.31089395 33.42699701 64.31030273 37.41430664 C64.31020107 42.5337584 64.32385489 47.65307161 64.34107494 52.7724905 C64.35217141 56.69717554 64.35422267 60.62182683 64.35369301 64.54652596 C64.35487663 66.43444357 64.35931961 68.32236195 64.36702538 70.21026421 C64.37677803 72.84657481 64.37396607 75.48258141 64.36791992 78.11889648 C64.37353943 78.90494766 64.37915894 79.69099884 64.38494873 80.50086975 C64.35331548 85.90449702 64.35331548 85.90449702 62.125 88.1328125 C59.7421875 88.328125 59.7421875 88.328125 57 88.2578125 C56.08992188 88.23976563 55.17984375 88.22171875 54.2421875 88.203125 C53.54351563 88.17992187 52.84484375 88.15671875 52.125 88.1328125 C52.13660156 88.91527344 52.14820313 89.69773437 52.16015625 90.50390625 C52.16917969 91.51582031 52.17820312 92.52773438 52.1875 93.5703125 C52.19910156 94.57964844 52.21070313 95.58898437 52.22265625 96.62890625 C52.125 99.1328125 52.125 99.1328125 51.125 100.1328125 C49.72374663 100.23603448 48.3173873 100.2713068 46.91235352 100.27807617 C45.57074913 100.28764595 45.57074913 100.28764595 44.20204163 100.29740906 C43.22915695 100.29852188 42.25627228 100.2996347 41.25390625 100.30078125 C39.76491066 100.30577385 39.76491066 100.30577385 38.24583435 100.31086731 C36.1416775 100.3159409 34.03751257 100.3182755 31.93334961 100.31811523 C28.70478117 100.3203008 25.47655473 100.33844949 22.24804688 100.35742188 C20.20833451 100.36035582 18.16862051 100.36234061 16.12890625 100.36328125 C15.15804581 100.37046677 14.18718536 100.37765228 13.18690491 100.38505554 C12.28934982 100.38197891 11.39179474 100.37890228 10.46704102 100.37573242 C9.67507828 100.37715744 8.88311554 100.37858246 8.06715393 100.38005066 C6.125 100.1328125 6.125 100.1328125 4.125 98.1328125 C3.9296875 95.75 3.9296875 95.75 4 93.0078125 C4.01804687 92.09773437 4.03609375 91.18765625 4.0546875 90.25 C4.07789063 89.55132813 4.10109375 88.85265625 4.125 88.1328125 C3.48691406 88.14441406 2.84882812 88.15601563 2.19140625 88.16796875 C1.36511719 88.17699219 0.53882813 88.18601562 -0.3125 88.1953125 C-1.54806641 88.21271484 -1.54806641 88.21271484 -2.80859375 88.23046875 C-4.875 88.1328125 -4.875 88.1328125 -5.875 87.1328125 C-5.97545053 84.46031183 -6.01116649 81.81362669 -6.00439453 79.140625 C-6.00614685 78.3032782 -6.00789917 77.4659314 -6.00970459 76.60321045 C-6.01412401 73.82139036 -6.0111848 71.03963329 -6.0078125 68.2578125 C-6.00848551 66.33349597 -6.00945552 64.40917952 -6.01071167 62.48486328 C-6.01218877 58.44628085 -6.01003371 54.4077205 -6.00537109 50.36914062 C-5.9996738 45.18012739 -6.00295274 39.99116587 -6.00894356 34.80215454 C-6.01254886 30.8269003 -6.01141073 26.85165841 -6.00881577 22.87640381 C-6.00814641 20.9625447 -6.00897522 19.04868448 -6.01129532 17.13482666 C-6.01382133 14.464854 -6.00998198 11.7949663 -6.00439453 9.125 C-6.00641876 8.32600281 -6.00844299 7.52700562 -6.01052856 6.70379639 C-5.98443127 0.00741697 -5.98443127 0.00741697 0 0 Z " fill="#050605" transform="translate(1110.875,785.8671875)"/>
<path d="M0 0 C21.78 0 43.56 0 66 0 C66 16 66 16 65 18 C51.14 18 37.28 18 23 18 C23 25.59 23 33.18 23 41 C25.51496094 40.98839844 28.02992187 40.97679687 30.62109375 40.96484375 C33.0469551 40.95705327 35.47281507 40.95097646 37.89868164 40.94506836 C39.58944316 40.9400281 41.28020029 40.93319595 42.97094727 40.92456055 C45.39600707 40.91248143 47.82100944 40.90676877 50.24609375 40.90234375 C51.38672523 40.89460182 51.38672523 40.89460182 52.55039978 40.88670349 C54.3673257 40.88650762 56.18413127 40.93802723 58 41 C59.82116003 42.82116003 59.1323508 45.30671764 59.13671875 47.7265625 C59.13285156 48.47679687 59.12898438 49.22703125 59.125 50 C59.13080078 51.12535156 59.13080078 51.12535156 59.13671875 52.2734375 C59.12661053 57.87338947 59.12661053 57.87338947 58 59 C55.40640678 59.08851529 52.83960309 59.11525945 50.24609375 59.09765625 C49.47064713 59.0962413 48.6952005 59.09482635 47.89625549 59.09336853 C45.40996506 59.08775345 42.9237634 59.07519846 40.4375 59.0625 C38.75586067 59.05748694 37.07421994 59.0529237 35.39257812 59.04882812 C31.26165671 59.03862832 27.13092818 59.01905605 23 59 C23 66.59 23 74.18 23 82 C26.02027344 81.98839844 29.04054688 81.97679687 32.15234375 81.96484375 C35.0646962 81.95705391 37.9770475 81.95097674 40.8894043 81.94506836 C42.91968298 81.94002722 44.94995802 81.93319443 46.98022461 81.92456055 C49.89177347 81.91248533 52.8032745 81.90676966 55.71484375 81.90234375 C56.6283812 81.89718246 57.54191864 81.89202118 58.48313904 81.88670349 C60.65575427 81.88650832 62.82827296 81.93788195 65 82 C66.82116003 83.82116003 66.1323508 86.30671764 66.13671875 88.7265625 C66.13285156 89.47679687 66.12898438 90.22703125 66.125 91 C66.12886719 91.75023437 66.13273437 92.50046875 66.13671875 93.2734375 C66.12661053 98.87338947 66.12661053 98.87338947 65 100 C62.97505769 100.09409479 60.9468013 100.11743122 58.91967773 100.11352539 C57.60012085 100.11340454 56.28056396 100.11328369 54.92102051 100.11315918 C53.50854445 100.10812269 52.09606885 100.10295606 50.68359375 100.09765625 C49.40681763 100.09664917 48.1300415 100.09564209 46.8145752 100.09460449 C42.02220773 100.08935266 37.22985301 100.07539156 32.4375 100.0625 C21.733125 100.041875 11.02875 100.02125 0 100 C0 67 0 34 0 0 Z " fill="#030303" transform="translate(1360,786)"/>
<path d="M0 0 C1.11455566 -0.00630432 2.22911133 -0.01260864 3.37744141 -0.019104 C4.58577637 -0.01505554 5.79411133 -0.01100708 7.0390625 -0.00683594 C8.89217041 -0.00970612 8.89217041 -0.00970612 10.78271484 -0.01263428 C14.06997657 -0.01434704 17.35705037 -0.00627793 20.64428711 0.00488281 C22.6620078 0.00878509 24.67955451 0.00489736 26.69726562 -0.00195312 C30.56128078 -0.01427098 34.42503678 -0.01282072 38.2890625 -0.00683594 C39.49739746 -0.0108844 40.70573242 -0.01493286 41.95068359 -0.019104 C43.06523926 -0.01279968 44.17979492 -0.00649536 45.328125 0 C46.80466553 0.00238678 46.80466553 0.00238678 48.31103516 0.00482178 C50.6640625 0.25878906 50.6640625 0.25878906 52.6640625 2.25878906 C52.89453125 5.44628906 52.89453125 5.44628906 52.8515625 9.25878906 C52.84511719 10.51691406 52.83867187 11.77503906 52.83203125 13.07128906 C52.6640625 16.25878906 52.6640625 16.25878906 51.6640625 18.25878906 C46.0540625 18.25878906 40.4440625 18.25878906 34.6640625 18.25878906 C34.6640625 39.37878906 34.6640625 60.49878906 34.6640625 82.25878906 C40.2740625 82.25878906 45.8840625 82.25878906 51.6640625 82.25878906 C52.6640625 83.25878906 52.6640625 83.25878906 52.76171875 86.85644531 C52.7550447 88.34475773 52.74308433 89.83305338 52.7265625 91.32128906 C52.72205078 92.07990234 52.71753906 92.83851563 52.71289062 93.62011719 C52.7010693 95.49970778 52.68313328 97.37925805 52.6640625 99.25878906 C50.08394605 100.54884729 48.2171441 100.39286541 45.328125 100.40405273 C44.21356934 100.41043259 43.09901367 100.41681244 41.95068359 100.42338562 C40.13818115 100.42505486 40.13818115 100.42505486 38.2890625 100.42675781 C37.05365723 100.43008621 35.81825195 100.43341461 34.54541016 100.43684387 C31.92936578 100.44191397 29.31331491 100.44425217 26.69726562 100.4440918 C24.00839549 100.44401029 21.31969478 100.45098752 18.63085938 100.46459961 C14.76687359 100.48283937 10.90308692 100.48782462 7.0390625 100.48925781 C5.22656006 100.50003609 5.22656006 100.50003609 3.37744141 100.5110321 C1.70560791 100.50641716 1.70560791 100.50641716 0 100.50170898 C-0.98436035 100.503134 -1.9687207 100.50455902 -2.98291016 100.50602722 C-5.3359375 100.25878906 -5.3359375 100.25878906 -7.3359375 98.25878906 C-7.50757481 95.6958659 -7.56858308 93.25533049 -7.5234375 90.69628906 C-7.52279297 89.99826172 -7.52214844 89.30023437 -7.52148438 88.58105469 C-7.47624908 83.39910065 -7.47624908 83.39910065 -6.3359375 82.25878906 C-0.3959375 82.25878906 5.5440625 82.25878906 11.6640625 82.25878906 C11.6640625 61.13878906 11.6640625 40.01878906 11.6640625 18.25878906 C5.7240625 18.25878906 -0.2159375 18.25878906 -6.3359375 18.25878906 C-8.31713105 16.27759551 -7.52094161 12.52433842 -7.5234375 9.82128906 C-7.53568359 9.12712891 -7.54792969 8.43296875 -7.56054688 7.71777344 C-7.56583592 5.89658006 -7.45762957 4.07591986 -7.3359375 2.25878906 C-4.7278852 -0.34926324 -3.6321181 0.0058712 0 0 Z " fill="#040404" transform="translate(229.3359375,785.7412109375)"/>
<path d="M0 0 C13.2 0 26.4 0 40 0 C40 29.04 40 58.08 40 88 C33.4 88 26.8 88 20 88 C20 80.74 20 73.48 20 66 C17.42838542 65.8046875 14.85677083 65.609375 12.28515625 65.4140625 C8.1445511 64.89217885 4.07398469 63.90532993 0 63 C0 56.07 0 49.14 0 42 C1.629375 42.144375 3.25875 42.28875 4.9375 42.4375 C5.85402344 42.51871094 6.77054688 42.59992188 7.71484375 42.68359375 C11.81436802 43.07843497 15.90669508 43.54518834 20 44 C20 36.08 20 28.16 20 20 C15.28892328 19.71213719 15.28892328 19.71213719 10.57739258 19.43188477 C6.92599077 19.1986487 3.60976249 18.7219525 0 18 C0 12.06 0 6.12 0 0 Z " fill="#FAFAFA" transform="translate(773,374)"/>
<path d="M0 0 C14.85 0 29.7 0 45 0 C45.36223749 14.26519094 45.65542437 28.52730397 45.82899475 42.79606247 C45.91232398 49.42258987 46.02522363 56.04579509 46.20703125 62.67041016 C46.38156327 69.0703589 46.47667952 75.46712472 46.51803589 81.86927032 C46.54748333 84.30485399 46.60499739 86.74027313 46.69168091 89.17449188 C47.32653897 107.75009153 47.32653897 107.75009153 43.45662498 113.15591812 C39.75003006 116.83456449 35.57295528 119.37569059 30.99208069 121.8234024 C27.78920568 123.71514056 25.29018045 126.16926156 22.58203125 128.7109375 C14.93673321 134.61228107 7.89637028 134.15870161 -1.3125 133.625 C-2.84295069 133.57469359 -4.37356354 133.5290921 -5.90429688 133.48828125 C-9.60630912 133.37954227 -13.30207002 133.20787464 -17 133 C-17 130.03 -17 127.06 -17 124 C-10.07 124 -3.14 124 4 124 C4 121.69 4 119.38 4 117 C10.6 117 17.2 117 24 117 C24 114.36 24 111.72 24 109 C24.22428986 106.6289358 24.60795316 104.35228105 25 102 C29.62 102 34.24 102 39 102 C39.20496094 100.2159375 39.40992188 98.431875 39.62109375 96.59375 C39.89320877 94.22916432 40.16534532 91.86458112 40.4375 89.5 C40.57220703 88.32695312 40.70691406 87.15390625 40.84570312 85.9453125 C40.97783203 84.79804688 41.10996094 83.65078125 41.24609375 82.46875 C41.43921143 80.78265625 41.43921143 80.78265625 41.63623047 79.0625 C41.92768754 76.60878354 42.25360607 74.16532904 42.59765625 71.71875 C43.51247048 63.26337968 43.02301519 57.708347 39.0625 50.09765625 C38.66297119 49.29388046 38.26344238 48.49010468 37.85180664 47.66197205 C36.58449362 45.120061 35.2934132 42.59121444 34 40.0625 C32.71158408 37.50656529 31.42820071 34.94820157 30.14819336 32.38804626 C29.35287943 30.80135769 28.5517776 29.21755453 27.74438477 27.63697815 C25 22.21811435 25 22.21811435 25 20 C16.75 20 8.5 20 0 20 C0 13.4 0 6.8 0 0 Z " fill="#FAFAFA" transform="translate(420,406)"/>
<path d="M0 0 C77.22 0 154.44 0 234 0 C234 2.64 234 5.28 234 8 C156.78 8 79.56 8 0 8 C0 5.36 0 2.72 0 0 Z " fill="#0D0D0D" transform="translate(765,625)"/>
<path d="M0 0 C7.26 0 14.52 0 22 0 C22 21.12 22 42.24 22 64 C14.74 64 7.48 64 0 64 C0 42.88 0 21.76 0 0 Z " fill="#F4F4F4" transform="translate(587,804)"/>
<path d="M0 0 C6.93 0 13.86 0 21 0 C21.02290956 4.96628434 21.04283643 9.93238663 21.05493164 14.89868164 C21.0599719 16.58944316 21.06680405 18.28020029 21.07543945 19.97094727 C21.08751857 22.39600707 21.09323123 24.82100944 21.09765625 27.24609375 C21.10281754 28.00651474 21.10797882 28.76693573 21.11329651 29.55039978 C21.11349238 31.3673257 21.06197277 33.18413127 21 35 C20 36 20 36 18.05053711 36.11352539 C16.8015564 36.10567017 16.8015564 36.10567017 15.52734375 36.09765625 C14.71773193 36.09515869 13.90812012 36.09266113 13.07397461 36.09008789 C12.03893799 36.08098389 11.00390137 36.07187988 9.9375 36.0625 C6.658125 36.041875 3.37875 36.02125 0 36 C0 24.12 0 12.24 0 0 Z " fill="#F7F7F7" transform="translate(1464,804)"/>
<path d="M0 0 C6.6 0 13.2 0 20 0 C20 11.55 20 23.1 20 35 C13.4 35 6.8 35 0 35 C0 23.45 0 11.9 0 0 Z " fill="#FCFBFB" transform="translate(1043,804)"/>
<path d="M0 0 C31.35 0 62.7 0 95 0 C95 2.31 95 4.62 95 7 C63.65 7 32.3 7 0 7 C0 4.69 0 2.38 0 0 Z " fill="#0C0D0C" transform="translate(111,622)"/>
<path d="M0 0 C26.07 0 52.14 0 79 0 C79 2.31 79 4.62 79 7 C52.93 7 26.86 7 0 7 C0 4.69 0 2.38 0 0 Z " fill="#151515" transform="translate(1336,644)"/>
<path d="M0 0 C6.93 0 13.86 0 21 0 C21 6.93 21 13.86 21 21 C14.07 21 7.14 21 0 21 C0 14.07 0 7.14 0 0 Z " fill="#090A09" transform="translate(687,180)"/>
<path d="M0 0 C17.82 0 35.64 0 54 0 C54 2.31 54 4.62 54 7 C36.18 7 18.36 7 0 7 C0 4.69 0 2.38 0 0 Z " fill="#030303" transform="translate(196,669)"/>
<path d="M0 0 C13.2 0 26.4 0 40 0 C40 1.98 40 3.96 40 6 C26.8 6 13.6 6 0 6 C0 4.02 0 2.04 0 0 Z " fill="#111111" transform="translate(848,683)"/>
<path d="M0 0 C10.89 0 21.78 0 33 0 C33 2.31 33 4.62 33 7 C22.11 7 11.22 7 0 7 C0 4.69 0 2.38 0 0 Z " fill="#070807" transform="translate(1051,625)"/>
<path d="M0 0 C1.00023193 0.00523682 2.00046387 0.01047363 3.03100586 0.01586914 C4.1105957 0.0190918 5.19018555 0.02231445 6.30249023 0.02563477 C8.00695313 0.03820312 8.00695313 0.03820312 9.74584961 0.05102539 C11.45611328 0.05779297 11.45611328 0.05779297 13.20092773 0.06469727 C16.02845312 0.07652792 18.85587601 0.09301129 21.68334961 0.11352539 C21.68334961 2.75352539 21.68334961 5.39352539 21.68334961 8.11352539 C13.43334961 8.11352539 5.18334961 8.11352539 -3.31665039 8.11352539 C-3.31665039 0.1625295 -3.31665039 0.1625295 0 0 Z " fill="#242424" transform="translate(1260.316650390625,633.886474609375)"/>
<path d="M0 0 C8.25 0 16.5 0 25 0 C25 2.31 25 4.62 25 7 C16.75 7 8.5 7 0 7 C0 4.69 0 2.38 0 0 Z " fill="#0A0A0A" transform="translate(293,691)"/>
<path d="M0 0 C6.6 0 13.2 0 20 0 C20 2.31 20 4.62 20 7 C13.4 7 6.8 7 0 7 C0 4.69 0 2.38 0 0 Z " fill="#0B0B0B" transform="translate(631,693)"/>
<path d="M0 0 C4.29 0 8.58 0 13 0 C13 2.31 13 4.62 13 7 C8.71 7 4.42 7 0 7 C0 4.69 0 2.38 0 0 Z " fill="#050605" transform="translate(962,684)"/>
<path d="M0 0 C4.29 0 8.58 0 13 0 C12.01 1.485 12.01 1.485 11 3 C8.8359375 3.29296875 8.8359375 3.29296875 6.375 3.1875 C5.55773437 3.16042969 4.74046875 3.13335938 3.8984375 3.10546875 C3.27195312 3.07066406 2.64546875 3.03585937 2 3 C1.67 3.66 1.34 4.32 1 5 C0.67 3.35 0.34 1.7 0 0 Z " fill="#2C2C2C" transform="translate(962,684)"/>
</svg>
